<?xml version="1.0" encoding="UTF-8" standalone="no"?>
<!DOCTYPE svg  PUBLIC '-//W3C//DTD SVG 1.1//EN'  'http://www.w3.org/Graphics/SVG/1.1/DTD/svg11.dtd'>
<svg xmlns="http://www.w3.org/2000/svg" version="1.1">
<defs>
<font id="Marschel-Pro" horiz-adv-x="911">
<font-face units-per-em="1283" bbox="-150 -364 1253 1115" unicode-range="U+0020-00FE" x-height="510" panose-1="0 0 5 0 0 0 0 0 0 0" ascent="1026" cap-height="882" descent="-257" underline-thickness="50" font-family="Marschel Pro" font-weight="400" underline-position="-150"/>
<missing-glyph/>
<glyph unicode=" " horiz-adv-x="260" glyph-name="space"/>
<glyph d="M314 825q0 -53 -41.5 -340.5t-45.5 -321.5q0 -4 -20.5 136.5t-41 305.5t-20.5 220q0 49 26.5 76.5t58 27.5t58 -27.5t26.5 -76.5zM289 0q0 28 -20.5 49t-49.5 21t-49.5 -20.5t-20.5 -49.5t20.5 -49.5t49.5 -20.5t49.5 20.5t20.5 49.5z" unicode="!" horiz-adv-x="459" glyph-name="exclam"/>
<glyph d="M119 942q20 -2 32.5 -17.5t12.5 -41.5t-11 -65.5t-23 -65.5l-11 -27q-49 98 -49 158q0 25 13.5 42.5t35.5 16.5zM259 942q20 -2 32.5 -17.5t12.5 -41.5t-11 -65.5t-23 -65.5l-11 -27q-49 98 -49 158q0 25 13.5 42.5t35.5 16.5z" unicode='&quot;' horiz-adv-x="374" glyph-name="quotedbl"/>
<glyph d="M918 518l-171 1l-77 -188h169l-33 -85h-171l-101 -246h-66l101 246h-246l-101 -246h-66l101 246l-187 -1l35 87h187l77 189h-187l36 87l186 -1l96 235h67l-97 -236l245 -2l97 238h67l-98 -238l171 -1zM603 331l77 188l-245 1l-77 -188z" unicode="#" horiz-adv-x="1022" glyph-name="numbersign"/>
<glyph d="M562 236q5 -94 -68.5 -161.5t-201.5 -67.5h-11l-19 -99h-52l20 107q-17 3 -45 10.5t-33 8.5q-10 3 -20.5 4t-25 0t-24 -10.5t-9.5 -27.5v227q16 -61 57.5 -115.5t103.5 -74.5l68 359q-8 6 -40 29.5t-42.5 31.5t-37 30.5t-37.5 35t-29 34.5t-25.5 40.5t-14 42.5t-6.5 49 q0 97 67.5 151.5t188.5 54.5q33 0 70 -8l17 89h54l-19 -102q16 -6 23 -8q34 -11 61 -1t30 29l-23 -127l-9 -72q0 5 -7 26.5t-29 57.5t-53 59l-67 -350q42 -30 68 -51.5t56.5 -53t46 -68.5t17.5 -79zM180 715q0 -56 37 -99t109 -95l65 342q-25 9 -59 9q-67 0 -109.5 -44.5 t-42.5 -112.5zM292 29q77 0 118.5 43t41.5 110q0 88 -103 177l-64 -330h7z" unicode="$" horiz-adv-x="592" glyph-name="dollar"/>
<glyph d="M781 881h71l-427 -882h-96q13 31 418 858h-320q48 -26 76 -77t28 -114q0 -93 -58.5 -154.5t-147.5 -61.5q-88 0 -146.5 61.5t-58.5 154.5q0 94 57 155t148 61h6h450v-1zM325 461q61 0 95.5 58.5t34.5 146.5q0 86 -34 145.5t-96 59.5t-96 -59.5t-34 -145.5 q0 -88 34.5 -146.5t95.5 -58.5zM856 432q91 0 148.5 -61t57.5 -155t-58.5 -155t-147.5 -61t-147.5 61t-58.5 155t57.5 155t148.5 61zM856 11q61 0 95.5 58.5t34.5 146.5q0 86 -34 145.5t-96 59.5t-96 -59.5t-34 -145.5q0 -88 34.5 -146.5t95.5 -58.5z" unicode="%" horiz-adv-x="1182" glyph-name="percent"/>
<glyph d="M617 167q56 -63 124 -119t118 -76q-4 0 -32 -0.5t-41.5 0t-42 3t-48 7.5t-43.5 15.5t-42 25.5q-37 31 -55 51q-98 -104 -237 -108q-53 -2 -104.5 12t-96.5 41t-72 74.5t-25 107.5q0 24 4 45t13 39.5t16.5 33t24 30.5t25 25t29.5 23t29 19.5t31 19.5t28 17 q-2 3 -15.5 20.5t-16.5 22t-14.5 20.5t-15.5 22.5t-13 21.5t-13 24.5t-10 23.5t-9.5 27t-6.5 27q-8 42 3.5 87t39.5 83.5t80.5 61.5t119.5 18q77 -5 137 -60.5t60 -132.5q0 -44 -20 -84.5t-48 -67.5t-56.5 -47.5t-48.5 -29.5l-20 -10l105 -129q72 -86 140 -162 q21 41 22.5 88t-13 86t-47 66t-74.5 28v8h145q17 -25 25 -70.5t-0.5 -109t-38.5 -118.5zM342 891q-63 2 -101.5 -41t-29.5 -116q13 -99 115 -221q5 3 13.5 8t30.5 23.5t40 38.5t34.5 51t20.5 63q12 95 -27.5 144t-95.5 50zM318 -6q65 -4 122.5 25t95.5 75q-253 286 -291 332 q-121 -85 -122 -220q-1 -94 53 -150.5t142 -61.5z" unicode="&amp;" horiz-adv-x="832" glyph-name="ampersand"/>
<glyph d="M119 942q20 -2 32.5 -17.5t12.5 -41.5t-11 -65.5t-23 -65.5l-11 -27q-49 98 -49 158q0 25 13.5 42.5t35.5 16.5z" unicode="&apos;" horiz-adv-x="234" glyph-name="quotesingle"/>
<glyph d="M442 945q-157 -9 -264.5 -152.5t-107.5 -355.5q0 -204 109 -341t263 -146q-5 1 -14 4t-35 17.5t-50 35t-53 60t-49.5 88.5t-35 125t-14.5 166t14 166t36 125.5t48.5 89t53.5 61t49 35.5t36 18z" unicode="(" horiz-adv-x="462" glyph-name="parenleft"/>
<glyph d="M20 945q157 -9 264.5 -152.5t107.5 -355.5q0 -204 -109 -341t-263 -146q5 1 14 4t35 17.5t50 35t53 60t49.5 88.5t35 125t14.5 166t-14 166t-36 125.5t-48.5 89t-53.5 61t-49 35.5t-36 18z" unicode=")" horiz-adv-x="462" glyph-name="parenright"/>
<glyph d="M306 859q42 -28 61 -13q-19 -22 -24 -30l-16 -30q2 21 -36 49l-32 20v-36q2 -48 22 -58q-12 4 -34 4q-2 0 -38 -4q22 9 22 58v39l-35 -23q-39 -29 -37 -49q-3 12 -15 30q-8 12 -15.5 20.5t-8.5 9.5q19 -15 60 13l38 24l-38 24q-16 9 -31 12.5t-22 2.5l-7 -1q7 4 22 26 q2 3 17 33q-4 -24 38 -51l34 -22v41q0 52 -21 60q27 -3 37 -3l34 4q-20 -16 -22 -57v-42l30 19q42 27 38 51q11 -23 18 -33q6 -10 11.5 -16.5t7.5 -8.5l3 -1q-25 7 -60 -14l-38 -24z" unicode="*" horiz-adv-x="387" glyph-name="asterisk"/>
<glyph d="M736 475v-79h-268v-269h-80v269l-268 -1v80h268v268h80v-268h268z" unicode="+" horiz-adv-x="856" glyph-name="plus"/>
<glyph d="M102 63q19 2 35.5 -12.5t20.5 -40.5q9 -54 -25 -97t-83 -60q55 43 49 75q-3 18 -19.5 35t-20.5 37q-5 24 8 42.5t35 20.5z" unicode="," horiz-adv-x="210" glyph-name="comma"/>
<glyph d="M70 398l736 -2l-696 -91z" unicode="-" horiz-adv-x="876" glyph-name="hyphen"/>
<glyph d="M210 0q0 29 -20.5 49.5t-49.5 20.5t-49.5 -20.5t-20.5 -49.5t20.5 -49.5t49.5 -20.5t49.5 20.5t20.5 49.5z" unicode="." horiz-adv-x="280" glyph-name="period"/>
<glyph d="M90 0l430 882h93q-425 -876 -427 -882h-96z" unicode="/" horiz-adv-x="756" glyph-name="slash"/>
<glyph d="M410 881q159 -1 250 -124t91 -318q0 -193 -93 -316t-248 -123q-154 0 -247 123t-93 316q0 128 39 227t117 157t184 58zM410 22q73 0 122 58.5t70 149.5t21 209q0 84 -11.5 156.5t-36 133t-67 95.5t-98.5 35t-98 -34.5t-66 -95t-36 -133.5t-12 -157q0 -118 21 -209 t70 -149.5t121 -58.5z" unicode="0" horiz-adv-x="751" glyph-name="zero"/>
<glyph d="M277 123q0 -45 11 -76t22 -39l11 -8q-35 9 -106 9q-32 0 -58 -2t-37 -5l-10 -2q2 1 5 3t10 11t13 21.5t10.5 35.5t4.5 52v502q0 32 -21 47t-42 14l-20 -2q15 11 39.5 31.5t80 77t87.5 106.5v-776z" unicode="1" horiz-adv-x="391" glyph-name="one"/>
<glyph d="M423 18q44 3 81 21t57 37.5t37 48t20 36.5t6 18l-28 -179h-312h-214q10 12 26.5 33.5t64 87t89.5 129.5t90.5 151.5t79.5 163.5q51 137 15 216t-129 79q-45 0 -81 -18.5t-59 -50t-36.5 -62.5t-23.5 -67l-20 138q4 3 11.5 8.5t31 20t48 25t60 19.5t69.5 9q98 0 169 -52.5 t89 -147.5t-46 -226q-52 -103 -122 -212.5t-114 -167.5l-44 -58h185z" unicode="2" horiz-adv-x="694" glyph-name="two"/>
<glyph d="M427 481q90 -17 148 -80t58 -151q0 -64 -28 -114t-75 -78.5t-101.5 -43t-113.5 -14.5q-78 0 -154 28q-31 11 -59.5 0.5t-31.5 -28.5l29 178q0 -2 3 -12.5t12 -29t23 -37t38.5 -37.5t54.5 -30q31 -11 79 -11q66 0 112.5 35t66 85t19.5 108q0 113 -55.5 166t-141.5 53h-22 q0 3 2 9t2 9h31q72 4 108.5 55.5t36.5 132.5q0 31 -6 60t-21 58.5t-45.5 47.5t-73.5 18q-45 0 -81 -18.5t-59 -50t-36.5 -62t-23.5 -66.5l-20 138q11 9 31 22.5t77.5 36.5t111.5 23q119 0 188 -55t69 -148q-1 -71 -43.5 -125.5t-108.5 -71.5z" unicode="3" horiz-adv-x="703" glyph-name="three"/>
<glyph d="M648 162q-3 22 -19.5 46.5t-46.5 37.5v-123q0 -45 11 -76t21 -39l11 -8q-34 9 -105 9q-32 0 -58.5 -2t-37.5 -5l-10 -2q2 1 5 3t10.5 11t13 21.5t10.5 35.5t5 52v131h-388l512 648v-547q59 18 67 66q-8 -80 -8 -125q0 -36 1.5 -64t3.5 -47.5t2 -22.5zM458 348 q0 188 1 365l-288 -365h287z" unicode="4" horiz-adv-x="719" glyph-name="four"/>
<glyph d="M258 559q80 31 152 22t127.5 -44t88 -99t32.5 -143q0 -136 -98 -215.5t-245 -79.5q-78 0 -154 28q-31 11 -59.5 0.5t-31.5 -28.5l29 178q0 -4 6 -21t26 -47.5t49 -51.5q52 -37 129 -37q91 0 158.5 75.5t67.5 190.5q0 121 -59 184.5t-167 63.5q-37 0 -70.5 -16 t-54.5 -38.5t-33 -41t-15 -29.5v473l488 -1l-3 -17l-18 -123q-1 3 -3.5 16.5t-5 22t-8 22.5t-14 23t-20.5 19t-30 14.5t-40 4.5h-225z" unicode="5" horiz-adv-x="728" glyph-name="five"/>
<glyph d="M417 551q113 8 191.5 -66.5t78.5 -196.5q0 -114 -76.5 -200t-201.5 -88q-66 -1 -120.5 19t-90.5 55.5t-62 78t-40 92.5t-20 93t-6 84q0 96 21 177.5t63 145t111.5 100t158.5 36.5q46 -2 61 -6q38 -8 98 -37.5t59 -38.5l-20 -139q-23 89 -72 143.5t-126 54.5 q-64 0 -111.5 -51.5t-70.5 -130.5t-31.5 -164t-2.5 -162q16 79 71.5 137t137.5 64zM409 22q60 0 108.5 69t48.5 190q0 108 -37 176.5t-115 68.5q-63 0 -115 -64.5t-58 -162.5q-5 -70 9 -130.5t55 -103.5t104 -43z" unicode="6" horiz-adv-x="757" glyph-name="six"/>
<glyph d="M378 78q-7 -27 -0.5 -44.5t17.5 -25.5l11 -8q-34 9 -105 9q-32 0 -58 -2t-37 -5l-10 -2q38 17 60 65q8 19 131.5 401t130.5 399h-297q-26 0 -46 -7.5t-31.5 -17t-20.5 -25.5t-12 -26t-6.5 -27t-4.5 -20l-17 122l-3 19h566q-253 -756 -268 -805z" unicode="7" horiz-adv-x="696" glyph-name="seven"/>
<glyph d="M440 488q6 -5 36 -25t45 -31.5t40.5 -36t39 -47t24.5 -55.5t11 -69q0 -93 -82 -162t-205 -69q-116 0 -197.5 63.5t-81.5 174.5q0 48 15.5 88t44.5 69t58.5 49t67.5 38q-59 50 -90.5 93t-34.5 102q-5 88 59.5 158.5t184.5 67.5q92 -3 147.5 -60.5t53.5 -145.5 q-1 -37 -15 -71t-34 -57t-40 -40.5t-33 -25.5zM239 696q10 -44 40 -82.5t57 -58.5t70 -46q9 8 23 23t40 61t30 93q8 83 -23.5 135.5t-99.5 55.5q-53 2 -88.5 -26t-47 -69.5t-1.5 -85.5zM355 15q48 0 85 21.5t53.5 53.5t24 68.5t-1.5 66.5q-15 65 -76 119t-160 112 q-50 -32 -81.5 -91t-31.5 -136q0 -89 49 -151.5t139 -62.5z" unicode="8" horiz-adv-x="706" glyph-name="eight"/>
<glyph d="M348 881q67 0 123 -28.5t93.5 -75.5t63 -108t35.5 -125.5t7 -127.5q-4 -84 -27.5 -157.5t-65 -132t-107 -92.5t-147.5 -34q-46 0 -87 10.5t-67 25.5t-46 30.5t-29 25.5l-8 11l33 144q2 -87 56.5 -154.5t147.5 -67.5q55 0 100 33t70 83.5t42.5 112t18.5 119t-3 103.5 q-24 -60 -87.5 -103t-123.5 -43q-119 0 -194.5 71t-75.5 192q0 73 32.5 138t97 107.5t148.5 42.5zM342 359q70 0 122 70.5t52 181.5q0 104 -44.5 176t-123.5 72q-70 0 -114 -72.5t-44 -186.5q0 -108 37 -174.5t115 -66.5z" unicode="9" horiz-adv-x="721" glyph-name="nine"/>
<glyph d="M260 403q0 29 -21 49.5t-49 20.5q-29 0 -49.5 -20.5t-20.5 -49.5t20.5 -49.5t49.5 -20.5t49.5 20.5t20.5 49.5zM260 98q0 28 -20.5 48.5t-49.5 20.5t-49.5 -20t-20.5 -49t20.5 -49.5t49.5 -20.5t49.5 20.5t20.5 49.5z" unicode=":" horiz-adv-x="380" glyph-name="colon"/>
<glyph d="M276 404q0 29 -20 49.5t-49 20.5t-49.5 -20.5t-20.5 -49.5t20.5 -49t49.5 -20t49 20.5t20 48.5zM211 160q20 -2 33 -19.5t12 -44.5q-1 -54 -42.5 -90t-93.5 -43q63 32 63 65q0 17 -13 37t-13 41q0 24 15.5 40t38.5 14z" unicode=";" horiz-adv-x="396" glyph-name="semicolon"/>
<glyph d="M499 671v-89l-292 -186l292 -185v-89l-429 274z" unicode="&lt;" horiz-adv-x="569" glyph-name="less"/>
<glyph d="M120 560h616v-80h-616v80zM120 320h616v-80h-616v80z" unicode="=" horiz-adv-x="856" glyph-name="equal"/>
<glyph d="M70 671v-89l293 -186l-293 -185v-89l429 274z" unicode="&gt;" horiz-adv-x="569" glyph-name="greater"/>
<glyph d="M303 186q-19 63 -11 120.5t31 97.5t56 83t63.5 77.5t53 80.5t25.5 93q4 79 -40.5 126t-116.5 47q-147 0 -199 -198l-20 139q11 9 30.5 22.5t77.5 36t112 22.5q115 0 185.5 -53.5t70.5 -153.5q0 -57 -31.5 -112t-77 -101t-91.5 -93t-80 -108t-38 -126zM377 0 q0 29 -20.5 49t-49.5 20t-49.5 -20.5t-20.5 -48.5q0 -29 20.5 -49.5t49.5 -20.5t49.5 20.5t20.5 49.5z" unicode="?" horiz-adv-x="766" glyph-name="question"/>
<glyph d="M609 703q100 0 186 -34t144 -93t85 -143.5t13 -179.5q-20 -137 -104 -218t-174 -84q-31 -1 -60 10t-51 47t-17 93q-1 -7 -18 -27.5t-54.5 -44t-79.5 -26.5q-20 -1 -46 5t-56.5 22.5t-51.5 45.5t-33 73.5t1 107.5q23 115 124 195t202 61q69 -13 88 -66l16 40q20 -2 59 0.5 t59 9.5q-27 -23 -54.5 -97t-43.5 -135q-77 -292 22 -292q53 0 105 64t81 178q32 126 0 234t-123.5 172.5t-222.5 59.5q-159 -6 -271 -125t-127 -295q-7 -88 10 -161t49 -120t75.5 -80t86 -48.5t83.5 -18.5q81 -6 148 15.5t142 80.5l28 2q-147 -132 -316 -120 q-124 9 -217 66.5t-140 159.5t-33 232q13 123 87.5 224t181 155.5t217.5 54.5zM689 399q0 3 -0.5 8.5t-4.5 19t-12 24.5t-25.5 20.5t-41.5 11.5q-97 6 -168 -100q-61 -92 -65 -203q-3 -110 57 -145q20 -11 44 -12q57 0 94.5 43.5t65.5 124.5q13 38 27 90t22 85z" unicode="@" horiz-adv-x="1162" glyph-name="at"/>
<glyph unicode="A" d="M891 -4q-35 9 -106 9q-14 0 -27.5 -0.5t-23.5 -1.5t-19 -2t-15.5 -1.5t-10.5 -1.5t-7 -2h-2q4 0 11 6t15.5 27t-3.5 61l-83 261q-10 24 -24.5 34.5t-45.5 10.5h-204q-39 0 -48 -23q-89 -264 -91 -273q-9 -40 17.5 -68.5t55.5 -34.5h-210q7 0 21.5 4t44 30t47.5 70l66 195 q66 194 132.5 388.5t66.5 195.5h165q-12 -6 -16.5 -18.5t-1 -33.5t6 -31.5t10.5 -35.5l207 -675q9 -30 27 -52.5t32 -29.5zM547 414q21 0 32 11.5t7 31.5l-126 386q-19 -54 -142 -408q-2 -11 8 -16t21 -5h200z" glyph-name="A"/>
<glyph d="M491 486q90 -18 149.5 -84t59.5 -154q0 -117 -102.5 -182.5t-255.5 -65.5q-21 0 -89 7.5t-92 7.5q-31 0 -54 -2t-30 -5l-7 -2q2 1 5 3t10 11.5t13 21.5t10.5 35.5t4.5 51.5v636q0 28 -4.5 51t-10.5 35.5t-12.5 21t-11.5 11.5l-4 3q20 -8 91 -8q19 0 78.5 6.5t90.5 6.5 q138 0 226 -53t87 -155q0 -71 -43 -126t-109 -72zM286 870q-12 -2 -20.5 -6.5t-13.5 -13.5t-8.5 -15.5t-4.5 -21t-1.5 -20.5t0 -23.5t0.5 -21.5l-1 -215q0 -43 38 -43h67q82 0 136 50t53 139q1 81 -51 137t-134 56q-48 0 -60 -2zM352 20q92 0 155 70.5t64 163.5 q0 70 -36 121t-86.5 74t-105.5 23h-67q-39 0 -39 -42l1 -284v-20.5v-20.5v-18.5t1.5 -17.5t3.5 -14.5t5.5 -13t8 -9.5t11.5 -7t16 -3q12 -2 68 -2z" unicode="B" horiz-adv-x="728" glyph-name="B"/>
<glyph d="M514 21q45 0 81.5 18t57 43t35 52t19.5 43.5t5 20.5l31 -198q-6 20 -30 29t-61 -2q-80 -28 -148 -28q-191 0 -312.5 123t-121.5 317t121.5 317.5t312.5 123.5q54 0 148 -29q33 -9 59.5 -1t33.5 29l-32 -199q0 4 -4.5 20.5t-18.5 44t-34.5 52t-58 43t-83.5 18.5 q-79 0 -140 -33.5t-97.5 -92.5t-54.5 -133t-18 -160q0 -90 18 -164.5t54.5 -132t97 -89.5t140.5 -32z" unicode="C" horiz-adv-x="775" glyph-name="C"/>
<glyph d="M321 881q132 10 241.5 -40.5t176 -157t66.5 -250.5q0 -200 -134 -323.5t-354 -110.5q-130 10 -156 10q-32 0 -54.5 -2t-29.5 -5l-7 -2q2 1 5 3t10.5 11t13 21.5t10.5 35.5t5 52v636q0 45 -11 75.5t-22 39.5l-11 8q20 -9 91 -9q32 0 160 8zM339 17q155 -12 244 101.5 t88 314.5q1 215 -83.5 329.5t-248.5 100.5q-53 -4 -77 -21t-24 -60v-683q0 -73 101 -82z" unicode="D" horiz-adv-x="825" glyph-name="D"/>
<glyph d="M638 178l31 -179l-599 1q2 1 5 3t10.5 11t13 21.5t10.5 35.5t5 52v638q0 45 -11 75.5t-22 38.5l-11 8l599 1l-31 -179q0 147 -119 160q-11 1 -22 1h-185q-43 0 -58.5 -22t-15.5 -60v-326q3 -42 39 -42h103q64 0 96 34.5t36 70.5q-3 -60 -3 -109q0 -62 3 -119 q-5 35 -37.5 70t-93.5 35h-105q-35 0 -38 -43v-256q0 -83 74 -83h185q42 0 72.5 16t42.5 38t20 46t6 40.5t0 20.5v1z" unicode="E" horiz-adv-x="687" glyph-name="E"/>
<glyph d="M671 883l-32 -179q-1 2 0.5 11.5t-1.5 24t-6.5 31t-14 33.5t-25 30.5t-39 22t-55.5 8.5h-185q-42 0 -59 -30.5t-17 -71.5v-304q3 -42 41 -42h103q34 0 60.5 11.5t41 29t22 33.5t9.5 30q-4 -38 -4 -108q0 -62 3 -119q-6 35 -37.5 70t-93.5 35h-104q-38 0 -41 -43v-233 q0 -45 11 -76t22 -39l11 -8q-34 9 -105 9q-32 0 -58.5 -2t-37.5 -5l-10 -2q2 1 5 3t10 11t13 21.5t10.5 35.5t4.5 52v636q0 29 -4.5 52t-10.5 35.5t-12.5 21t-11.5 11.5l-4 3z" unicode="F" horiz-adv-x="691" glyph-name="F"/>
<glyph d="M676 424q32 0 58 2t36 4l11 3q-2 -1 -5 -3t-10 -11t-13 -21.5t-10.5 -35.5t-4.5 -51v-311q-20 46 -109 23q-84 -23 -176 -23q-158 0 -270.5 125t-112.5 315q0 195 118.5 317.5t313.5 123.5q56 0 140 -28q33 -11 60.5 -1t30.5 28l-32 -197q0 4 -4 20t-17 43.5t-33 52 t-58 42.5t-85 18q-79 0 -138.5 -33.5t-94 -92.5t-51 -132.5t-16.5 -160.5q0 -115 33.5 -211.5t91 -151.5t124.5 -55q87 0 124 30t37 91v168q0 45 -11 75.5t-21 38.5l-11 8q34 -9 105 -9z" unicode="G" horiz-adv-x="801" glyph-name="G"/>
<glyph d="M774 123q0 -45 11 -76t21 -39l11 -8q-35 9 -106 9q-32 0 -58 -2t-37 -5l-10 -2q2 1 5 3t10.5 11t13 21.5t10.5 35.5t5 52v228q0 47 -40 47h-335q-30 0 -37 -31v-244q0 -45 11 -76t21 -39l11 -8q-35 9 -106 9q-32 0 -58 -2t-37 -5l-10 -2q2 1 5 3t10.5 11t13 21.5 t10.5 35.5t5 52v636q0 45 -11 76t-22 39l-11 8q34 -9 105 -9q32 0 58.5 2.5t36.5 4.5l11 2q-2 -1 -5 -3t-10 -11t-13 -21.5t-10.5 -35.5t-4.5 -52v-317q6 -26 37 -26h335q40 0 40 43v300q0 45 -11 76t-22 39l-11 8q34 -9 105 -9q32 0 58.5 2.5t36.5 4.5l11 2q-2 -1 -5 -3 t-10 -11t-13 -21.5t-10.5 -35.5t-4.5 -52v-636z" unicode="H" horiz-adv-x="847" glyph-name="H"/>
<glyph d="M113 123q0 -29 -4.5 -52t-10.5 -35.5t-12.5 -21t-11.5 -11.5l-4 -3q34 9 105 9q32 0 58 -2t37 -5l10 -2q-2 1 -5 3t-10 11t-13 21.5t-10.5 35.5t-4.5 52v636q0 29 4.5 52t10.5 35.5t12.5 21t11.5 11.5l4 3q-34 -9 -105 -9q-32 0 -58 2.5t-37 4.5l-10 2q2 -1 5 -3t10 -11 t13 -21.5t10.5 -35.5t4.5 -52v-636z" unicode="I" horiz-adv-x="310" glyph-name="I"/>
<glyph d="M203 874q32 0 58.5 2t36.5 4l11 3q-2 -1 -5 -3t-10.5 -11t-13 -21.5t-10.5 -35.5t-5 -52l-1 -641q-2 -450 -414 -450l7 20q6 -1 16 -1.5t40 4.5t57 17.5t59.5 43.5t56.5 76.5t40 122.5t16 175v633q0 45 -11 76t-22 39l-11 8q34 -9 105 -9z" unicode="J" horiz-adv-x="339" glyph-name="J"/>
<glyph d="M617 148q46 -60 83 -97t51 -44l14 -7h-65q-54 0 -93.5 18.5t-75.5 65.5l-242 311v13l1 2q9 14 77 107t131 179l64 85q16 26 6.5 61.5t-37.5 41.5h227q-5 0 -36.5 -12t-79.5 -43.5t-73 -69.5l-209 -278zM113 123q0 -29 -4.5 -52t-10.5 -35.5t-12.5 -21t-11.5 -11.5l-4 -3 q34 9 105 9q32 0 58.5 -2t36.5 -5l11 -2q-2 1 -5 3t-10.5 11t-13 21.5t-10.5 35.5t-5 52v636q0 45 11 76t22 39l11 8q-35 -9 -106 -9q-32 0 -58 2.5t-37 4.5l-10 2q2 -1 5 -3t10 -11t13 -21.5t10.5 -35.5t4.5 -52v-636z" unicode="K" horiz-adv-x="785" glyph-name="K"/>
<glyph d="M543 20q141 8 141 156l31 -176q-27 1 -442 3l-197 1q2 1 5 3t10.5 11t13 21.5t10.5 35.5t5 51v631q0 45 -11 76t-21 39l-11 8q34 -9 105 -9q32 0 58 2.5t36 4.5l11 2q-2 -1 -5 -3t-10 -11t-13 -21.5t-10.5 -35.5t-4.5 -52v-613q0 -6 0.5 -23.5t0.5 -23.5t2 -20t4.5 -19.5 t8 -14.5t13 -13t18.5 -7t25 -3h227zM715 0z" unicode="L" horiz-adv-x="738" glyph-name="L"/>
<glyph d="M914 123q0 -45 11 -76t22 -39l11 -8q-34 9 -105 9q-32 0 -58.5 -2t-36.5 -5l-11 -2q2 1 5 3t10 11t13 21.5t10.5 35.5t4.5 52v636q0 26 -3 44l-317 -803l-279 794q-5 13 -19 39v-709q1 -66 27 -94.5t58 -28.5h-187q29 0 55.5 31.5t29.5 93.5l-1 715q0 15 -10.5 27.5 t-18.5 15.5q33 -11 110 -11q64 0 109 9q-35 -25 -18 -93l203 -594q237 601 242 612q10 26 0 48q-5 9 -11 16t-10 9l-3 2q35 -9 106 -9q32 0 58 2.5t37 4.5l10 2q-2 -1 -5 -3t-10.5 -11t-13 -21.5t-10.5 -35.5t-5 -52v-636z" unicode="M" horiz-adv-x="978" glyph-name="M"/>
<glyph d="M745 66q0 -23 13 -42t31 -27h-154l-462 766v-640q3 -67 28 -95t56 -28h-187q29 0 55.5 30.5t29.5 92.5v661q-20 60 -73 95q24 -8 112 -8q29 0 56.5 2.5t39.5 4.5l13 2q-16 -6 -16 -36.5t14 -55.5q8 -14 114.5 -193t208.5 -351l103 -171v678q-3 67 -29 98t-56 31h187 q-28 0 -54.5 -33.5t-29.5 -95.5v-685z" unicode="N" horiz-adv-x="849" glyph-name="N"/>
<glyph d="M489 901q185 0 302.5 -129t117.5 -322q0 -191 -119.5 -320.5t-300.5 -129.5q-180 0 -299.5 129.5t-119.5 320.5q0 193 117.5 322t301.5 129zM489 22q96 0 162 60.5t94.5 154.5t28.5 213q0 85 -16.5 159.5t-49 136t-89 97.5t-130.5 36t-130 -36t-89 -97.5t-49 -136 t-16 -159.5q0 -88 17 -164t50 -135.5t89 -94t128 -34.5z" unicode="O" horiz-adv-x="938" glyph-name="O"/>
<glyph d="M658 646q0 -104 -77.5 -177t-186.5 -73h-118q-35 0 -38 -40q-4 -200 0 -234q2 -45 13 -75.5t21 -38.5l10 -8q-34 8 -108 8q-31 0 -57 -2t-37 -4l-10 -2q2 1 4.5 3t10 11t13 21t10 35t4.5 52v642q0 44 -10.5 74.5t-21.5 39.5l-10 8q20 -8 90 -8q21 -1 80.5 5.5t89.5 6.5 q150 0 239 -64t89 -180zM346 414q83 0 140.5 59.5t57.5 164.5q0 97 -55.5 164.5t-142.5 67.5q-48 0 -60 -2t-20.5 -6.5t-13.5 -13.5t-8.5 -15.5t-4.5 -21t-1.5 -20.5t0 -23.5t0.5 -21.5v-294q3 -38 40 -38h68z" unicode="P" horiz-adv-x="678" glyph-name="P"/>
<glyph d="M880 491q0 -174 -115.5 -292.5t-289.5 -118.5t-289.5 118.5t-115.5 292.5q0 176 113.5 294t291.5 118t291.5 -118t113.5 -294zM200 491q0 -80 16.5 -149t49 -124t86 -86.5t123.5 -31.5q93 0 156.5 55.5t91 141t27.5 194.5q0 78 -15.5 146t-47.5 124t-86.5 89t-125.5 33 t-125.5 -33t-86.5 -89t-47.5 -124t-15.5 -146zM571 19q197 -74 263 -1l-2 -4l-4.5 -9t-7 -12t-11 -13.5t-15 -13.5t-20 -13t-24.5 -10.5t-30.5 -7t-36.5 -2.5q-60 0 -139 30q-76 30 -151 26.5t-112 -45.5q2 7 6.5 17.5t25.5 34.5t50 37.5t84.5 12.5t123.5 -27z" unicode="Q" horiz-adv-x="900" glyph-name="Q"/>
<glyph d="M590 134q39 -58 72 -91.5t46 -38.5l14 -4h-83q-50 0 -81.5 19.5t-66.5 66.5l-203 307v21h58q83 0 140.5 59.5t57.5 164.5q0 97 -55.5 164.5t-142.5 67.5q-48 0 -60 -2t-20.5 -6.5t-13.5 -13.5t-8.5 -15.5t-4.5 -21t-1.5 -20.5t0 -23.5t0.5 -21.5q-2 -608 0 -624 q2 -45 13 -75.5t21 -38.5l10 -8q-34 8 -108 8q-31 0 -57 -2t-37 -4l-10 -2q2 1 4.5 3t10 11t13 21t10 35t4.5 52v642q0 44 -10.5 74.5t-21.5 39.5l-10 8q20 -8 90 -8q21 -1 80.5 5.5t89.5 6.5q150 0 239 -64t89 -180q0 -99 -70.5 -170.5t-173.5 -79.5z" unicode="R" horiz-adv-x="755" glyph-name="R"/>
<glyph d="M168 715q0 -45 27.5 -86t68.5 -70.5t90 -65t91 -69t72 -83t33 -105.5q5 -94 -68.5 -161.5t-201.5 -67.5q-44 0 -140 28q-79 18 -79 -35v227q20 -76 76.5 -137t142.5 -61q76 0 113 42.5t37 110.5q0 43 -21 82.5t-54.5 70.5t-74 61t-81 61.5t-74 64.5t-54.5 76t-21 91 q0 97 71.5 151.5t192.5 54.5q66 0 145 -29q38 -11 61 -1t30 29l-23 -127l-9 -72q0 4 -5 20.5t-19 43.5t-34.5 52t-57.5 43t-82 18q-67 0 -109.5 -45t-42.5 -112z" unicode="S" horiz-adv-x="570" glyph-name="S"/>
<glyph d="M880 884l-31 -180q0 157 -124 157q-17 0 -68.5 0.5t-75.5 0.5q-17 0 -31 -12t-14 -31v-696q0 -45 11 -76t21 -39l11 -8q-34 9 -105 9q-32 0 -58.5 -2t-37.5 -5l-10 -2q2 1 5 3t10.5 11t13 21.5t10.5 35.5t5 52v696q0 16 -10.5 30t-26.5 14l-126 1q-147 0 -147 -160 l-32 180h810z" unicode="T" horiz-adv-x="900" glyph-name="T"/>
<glyph d="M797 883q-2 -1 -5 -3t-10 -11t-13 -21.5t-10.5 -35.5t-4.5 -52v-500q0 -74 -26.5 -129.5t-73 -87t-101.5 -47.5t-119 -16t-119 16t-101.5 47.5t-73.5 87t-27 129.5v500q0 29 -4.5 52t-10.5 35.5t-12.5 21t-11.5 11.5l-4 3q34 -9 105 -9q32 0 58.5 2t36.5 4l11 3 q-2 -1 -5 -3t-10 -11t-13 -21.5t-10.5 -35.5t-4.5 -52v-563q0 -35 10.5 -68.5t32 -62.5t61 -47t91.5 -18h1q100 0 148 59t48 137v563q0 45 -11 76t-22 39l-11 8q34 -9 105 -9q32 0 58.5 2t36.5 4z" unicode="U" horiz-adv-x="817" glyph-name="U"/>
<glyph d="M647 883h238q-3 0 -12 -1.5t-28.5 -7.5t-37.5 -16.5t-37.5 -31.5t-30.5 -48l-277 -778q-321 781 -325 794q-22 64 -67 89q45 -9 114 -9q58 0 112 9q-43 -17 -24 -94l237 -604q0 -1 51.5 144t104 293.5t54.5 156.5q8 35 -18.5 67t-53.5 37z" unicode="V" horiz-adv-x="905" glyph-name="V"/>
<glyph d="M1015 883h238q-3 0 -12 -1.5t-28.5 -7.5t-37.5 -16.5t-37.5 -31.5t-30.5 -48l-277 -778l-197 480l-171 -480q-321 781 -325 794q-22 64 -67 89q45 -9 114 -9q58 0 112 9q-43 -17 -24 -94l237 -604q0 -1 16.5 45.5l44 124t53.5 150.5q-84 204 -118 289q-22 64 -67 89 q45 -9 114 -9q58 0 112 9q-43 -17 -24 -94l237 -604q0 -1 51.5 144t104 293.5t54.5 156.5q8 35 -18.5 67t-53.5 37z" unicode="W" horiz-adv-x="1273" glyph-name="W"/>
<glyph d="M766 87q24 -35 46 -56.5t32 -26.5l9 -4q-40 9 -111 9q-59 0 -116 -9q11 3 19.5 12t8.5 29.5t-18 45.5l-195 296l-192 -313q-13 -21 -3.5 -43t39.5 -27h-215q10 0 37 6.5t71 31.5t67 63l184 300l-259 395q-24 35 -46 56.5t-32 25.5l-9 5q40 -9 111 -9q61 0 115 9 q-10 -3 -19 -12t-8.5 -29.5t18.5 -45.5l192 -292l180 292q12 20 6 51t-32 36h218l-15 -5q-15 -4 -37 -12.5t-47 -21t-49.5 -33.5t-39.5 -46l-172 -279z" unicode="X" horiz-adv-x="884" glyph-name="X"/>
<glyph d="M660 889h218q-2 0 -14.5 -4t-34 -13.5t-44 -22.5t-45.5 -35.5t-36 -48.5l-190 -369v-275q3 -112 52 -118q-4 0 -35.5 3.5t-70.5 3.5q-33 0 -114 -9q18 7 31 38t13 84v280l-234 393q-44 73 -85 87q54 -9 109 -9q59 0 116 9q-10 -3 -19 -12t-8.5 -29.5t18.5 -45.5l218 -376 l193 376q11 22 0 54.5t-38 38.5zM71 883h-1h1z" unicode="Y" horiz-adv-x="898" glyph-name="Y"/>
<glyph d="M606 21q43 2 80 24t58.5 48.5t39 59.5t22.5 48t7 24l-35 -221h-708q39 0 100 85l514 773l-331 -2q-44 -2 -81 -20.5t-57 -38t-37 -48.5t-20 -37t-6 -18l28 179l687 1q-39 0 -99 -86l-513 -770z" unicode="Z" horiz-adv-x="877" glyph-name="Z"/>
<glyph d="M120 -14q16 0 27 41t11 94v640q0 53 -11 94t-27 41q3 0 49.5 3.5t127.5 9.5t129 9q-7 -1 -18 -2.5t-39 -8.5t-50 -16.5t-39.5 -28t-17.5 -41.5v-760q0 -36 41 -60.5t82 -30.5l41 -6q-48 3 -129 9t-127.5 9.5t-49.5 3.5z" unicode="[" horiz-adv-x="436" glyph-name="bracketleft"/>
<glyph d="M613 0l-430 882h-93l427 -882h96z" unicode="\" horiz-adv-x="756" glyph-name="backslash"/>
<glyph d="M326 -12q-16 0 -27 41t-11 93v641q0 52 11 93t27 41q-3 0 -49.5 3.5t-127.5 9.5t-129 9q7 -1 18 -2t39 -8t50 -16.5t39.5 -28t17.5 -41.5v-761q0 -23 -17 -41t-41 -28t-48 -17t-41 -9l-17 -2q290 23 306 23z" unicode="]" horiz-adv-x="396" glyph-name="bracketright"/>
<glyph d="M70 454h89l186 292l185 -292h89l-274 429z" unicode="^" horiz-adv-x="689" glyph-name="asciicircum"/>
<glyph d="M70 5l736 -1v-50l-736 -1v52z" unicode="_" horiz-adv-x="876" glyph-name="underscore"/>
<glyph d="M142 1085l212 -158l-284 91z" unicode="`" horiz-adv-x="424" glyph-name="grave"/>
<glyph d="M460 98q0 -36 8.5 -60.5t17.5 -31.5l8 -6q-17 7 -99 7q-25 0 -45 -1.5t-28 -3.5l-7 -2q21 16 21 61q-7 -21 -52.5 -41t-102.5 -20q-61 0 -106 36t-45 96q0 30 13.5 54t31 38.5t47 27.5t47.5 18t48 12t34 8q85 22 85 51v22q0 139 -111 139q-50 0 -85 -22.5t-34 -65.5 q0 -12 7.5 -17.5t15.5 -5t18 2.5t12 2q40 0 40 -40q0 -20 -15.5 -35.5t-46.5 -15.5q-19 0 -39 14.5t-28 38.5q-20 65 29.5 113.5t137.5 49.5q106 1 164.5 -49.5t58.5 -155.5v-218zM336 119v189q0 -11 -75 -36q-55 -18 -82 -47.5t-27 -89.5q0 -61 46 -89t92 -7t46 80z" unicode="a" horiz-adv-x="554" glyph-name="a"/>
<glyph d="M301 526q122 18 210 -54t88 -199q0 -128 -73 -200.5t-190 -72.5q-58 0 -97.5 28.5t-39.5 48.5v-19q0 -18 10.5 -32.5t20.5 -19.5l10 -6q-34 9 -105 9q-32 0 -53.5 -2t-27.5 -5l-6 -2q19 16 24 58l1 702q0 110 -43 123q51 0 99 23.5t68 49.5v-484q41 45 104 54zM335 22 q51 0 84 39t45.5 92.5t12.5 118.5q0 115 -45 175.5t-114 57.5q-54 -3 -86.5 -39.5t-32.5 -69.5v-223q0 -66 37.5 -108.5t98.5 -42.5z" unicode="b" horiz-adv-x="659" glyph-name="b"/>
<glyph d="M496 117q-4 -13 -12.5 -28t-29 -40t-58.5 -41t-86 -16q-124 0 -202 72t-78 189q0 133 92 210.5t215 66.5q70 -6 110 -54t21 -109q-8 -24 -28.5 -38t-39.5 -14q-31 0 -46.5 15.5t-15.5 35.5q0 40 40 40q2 0 12.5 -2t19 -2.5t17.5 5t11 17.5q5 34 -25.5 60t-75.5 28 q-81 2 -133 -65t-52 -194q0 -102 46 -170t119 -68q67 0 108 34.5t57 85.5z" unicode="c" horiz-adv-x="556" glyph-name="c"/>
<glyph d="M564 123q0 -45 11 -76t21 -39l11 -8q-34 9 -105 9q-32 0 -53.5 -2t-27.5 -5l-6 -2q25 21 25 77q-40 -73 -134 -77q-113 -5 -194.5 65.5t-81.5 195.5q0 126 94.5 203.5t213.5 61.5q69 -9 102 -53v292q0 110 -43 123q51 0 99 23.5t68 49.5v-838zM440 173v223 q0 33 -29.5 68.5t-82.5 40.5q-71 7 -123.5 -59t-52.5 -187q0 -105 38 -171t114 -66q61 0 98.5 42.5t37.5 108.5z" unicode="d" horiz-adv-x="667" glyph-name="d"/>
<glyph d="M481 151l15 -9q-19 -55 -68.5 -98.5t-132.5 -43.5q-113 0 -189 64t-76 191q0 126 77 196t177 70q92 0 150 -58.5t58 -175.5h-338q-3 -48 3 -92.5t21.5 -85t47 -64.5t75.5 -24q73 0 117.5 37t62.5 93zM284 505q-55 0 -90.5 -56.5t-38.5 -138.5h249q0 94 -31 144.5 t-89 50.5z" unicode="e" horiz-adv-x="556" glyph-name="e"/>
<glyph d="M349 946q100 0 140.5 -66t12.5 -137q-9 -24 -29 -38.5t-38 -14.5q-31 0 -46.5 15.5t-15.5 35.5q0 40 40 40q1 0 11.5 -2t18 -2t16.5 6t13 18q14 47 -17.5 86.5t-93.5 39.5q-27 0 -47.5 -9.5t-32 -29.5t-18.5 -37t-9.5 -45.5t-3 -40.5t-0.5 -36v-11v-206h104v-30h-104 v-359q0 -45 11 -76t21 -39l11 -8q-34 9 -105 9q-32 0 -58 -2t-36 -5l-11 -2q2 1 5 3t10 11t13 21.5t10.5 35.5t4.5 52v359h-96v30h96v198q0 120 63.5 178t159.5 58z" unicode="f" horiz-adv-x="513" glyph-name="f"/>
<glyph d="M303 105q122 7 185.5 -48.5t63.5 -144.5q0 -96 -79.5 -167t-196.5 -80q-120 -9 -190.5 38.5t-70.5 119.5q0 42 23.5 72t58 41t74.5 8t73 -22q-39 0 -67.5 -11.5t-41.5 -29.5t-18.5 -34t-5.5 -32q0 -55 39 -93.5t121 -35.5q85 3 158.5 56t73.5 124q0 42 -19 67t-67.5 34.5 t-81 11.5t-109.5 1h-28q-62 0 -97 27t-37 62.5t23 71t71 49.5q-54 19 -89 58.5t-35 97.5q0 47 21.5 82.5t56.5 54.5t72 28.5t74 9.5q51 0 102 -17t84 -53q31 5 46.5 44.5t-10.5 62.5q-8 6 -17.5 6.5t-18 -4t-14.5 -9t-12 -10t-7 -6.5q-19 -13 -36.5 -12t-27.5 15 q-7 10 -8.5 24t6.5 30t27 27q42 23 86 -4q39 -24 51 -62.5t-2 -72.5t-46 -51q22 -36 22 -83q0 -59 -38.5 -100.5t-87.5 -57.5t-99 -16q-29 0 -59 6q-64 -8 -64 -49q0 -13 11 -20t33.5 -8.5t39.5 -1.5t47 3t37 3zM256 509q-41 -1 -68 -44.5t-28 -119.5q1 -77 30.5 -119 t69.5 -41q41 1 69 43.5t27 119.5q-2 82 -30.5 122t-69.5 39z" unicode="g" horiz-adv-x="552" glyph-name="g"/>
<glyph d="M538 123q0 -45 11 -76t21 -39l11 -8q-34 9 -105 9q-32 0 -58 -2t-36 -5l-11 -2q2 1 5 3t10 11t13 21.5t10.5 35.5t4.5 52v207q0 75 -18 108q-25 46 -82 46q-52 0 -84.5 -44t-32.5 -101v-216q0 -29 4.5 -52t10.5 -35.5t12.5 -21t11.5 -11.5l4 -3q-34 9 -105 9 q-32 0 -58 -2t-37 -5l-10 -2q2 1 5 3t10 11t13 21.5t10.5 35.5t4.5 52v637q0 110 -43 123q55 0 102 18t65 45v-525q10 30 43 56.5t73 34.5q96 19 160.5 -29t64.5 -139v-221z" unicode="h" horiz-adv-x="641" glyph-name="h"/>
<glyph d="M136 570q-24 0 -41.5 17.5t-17.5 44.5t17.5 45t41.5 18q25 0 42.5 -18t17.5 -45t-17.5 -44.5t-42.5 -17.5zM73 123q0 -29 -4.5 -52t-10.5 -35.5t-12.5 -21t-11.5 -11.5l-4 -3q34 9 105 9q32 0 58 -2t37 -5l10 -2q-2 1 -5 3t-10 11t-13 21.5t-10.5 35.5t-4.5 52v413 q-17 -25 -63 -39t-104 -14q43 -13 43 -123v-237z" unicode="i" horiz-adv-x="300" glyph-name="i"/>
<glyph d="M128 570q-24 0 -41.5 17.5t-17.5 44.5t17.5 45t41.5 18q25 0 42.5 -18t17.5 -45t-17.5 -44.5t-42.5 -17.5zM200 536v-418q0 -20 1 -58t1 -61.5t-2 -60t-6.5 -60.5t-15 -55t-25.5 -51t-39.5 -41.5t-56 -34t-75.5 -20.5t-97 -8l7 20q4 -1 10.5 -2t25.5 1t36.5 8t39 24 t36.5 44.5t25.5 73.5t10.5 108v424q-2 100 -43 114q58 0 104 14t63 39z" unicode="j" horiz-adv-x="263" glyph-name="j"/>
<glyph d="M486 85q40 -67 99 -85q-36 9 -119 9q-66 0 -120 -9q48 18 9 86l-107 185l-51 -56v-92q0 -29 4.5 -52t10.5 -35.5t12.5 -21t11.5 -11.5l4 -3q-34 9 -105 9q-32 0 -58 -2t-37 -5l-10 -2q2 1 5 3t10 11t13 21.5t10.5 35.5t4.5 52v637q0 110 -43 123q55 0 102 18t65 45v-704 l158 178q27 35 8 63.5t-61 37.5q73 -9 131 -9q19 0 50.5 2t55.5 4.5t25 2.5q-28 -4 -87.5 -34.5t-94.5 -66.5l-57 -64zM585 0h1h-1z" unicode="k" horiz-adv-x="636" glyph-name="k"/>
<glyph d="M73 123q0 -29 -4.5 -52t-10.5 -35.5t-12.5 -21t-11.5 -11.5l-4 -3q34 9 105 9q32 0 58 -2t37 -5l10 -2q-2 1 -5 3t-10 11t-13 21.5t-10.5 35.5t-4.5 52v823q-18 -27 -65 -45t-102 -18q43 -13 43 -123v-637z" unicode="l" horiz-adv-x="300" glyph-name="l"/>
<glyph d="M839 123q0 -29 6.5 -52t15.5 -35.5t18.5 -21t16.5 -11.5l6 -3q-54 9 -125 9q-32 0 -58 -2t-37 -5l-10 -2q2 1 5 3t10 11t13 21.5t10.5 35.5t4.5 52v217v10.5v15.5t-0.5 18.5t-2 21t-4 21t-6.5 21t-10.5 18t-14 15t-18.5 9.5t-24 4q-50 0 -82.5 -46.5t-34.5 -102.5v-222 q0 -45 11 -76t21 -39l11 -8q-34 9 -105 9q-32 0 -58 -2t-36 -5l-11 -2q2 1 5 3t10 11t13 21.5t10.5 35.5t4.5 52v217v10.5v15.5t-0.5 18.5t-2 21t-4 21t-6.5 21t-10.5 18t-14 15t-18.5 9.5t-24 4q-51 0 -84 -48.5t-33 -106.5v-216q0 -29 4.5 -52t10.5 -35.5t12.5 -21 t11.5 -11.5l4 -3q-34 9 -105 9q-32 0 -58 -2t-37 -5l-10 -2q2 1 5 3t10 11t13 21.5t10.5 35.5t4.5 52v237q0 110 -43 123q58 0 104 14t63 39v-105q10 30 43 56.5t73 34.5q65 17 121.5 -15.5t75.5 -96.5q31 93 124 112q82 20 143.5 -29t61.5 -139v-231z" unicode="m" horiz-adv-x="928" glyph-name="m"/>
<glyph d="M538 123q0 -45 11 -76t21 -39l11 -8q-34 9 -105 9q-32 0 -58 -2t-36 -5l-11 -2q2 1 5 3t10 11t13 21.5t10.5 35.5t4.5 52v217q0 75 -18 108q-25 46 -82 46q-51 0 -84 -48.5t-33 -106.5v-216q0 -29 4.5 -52t10.5 -35.5t12.5 -21t11.5 -11.5l4 -3q-34 9 -105 9 q-32 0 -58 -2t-37 -5l-10 -2q2 1 5 3t10 11t13 21.5t10.5 35.5t4.5 52v237q0 110 -43 123q58 0 104 14t63 39v-105q10 30 43 56.5t73 34.5q96 19 160.5 -29t64.5 -139v-231z" unicode="n" horiz-adv-x="651" glyph-name="n"/>
<glyph d="M285 526q103 0 180 -73t77 -194t-77 -192.5t-180 -71.5t-179 71.5t-76 192.5t76.5 194t178.5 73zM285 14q57 0 97.5 66t40.5 179q0 121 -40 184t-98 63q-59 0 -99 -63t-40 -184q0 -114 40.5 -179.5t98.5 -65.5z" unicode="o" horiz-adv-x="602" glyph-name="o"/>
<glyph d="M312 526q122 18 210 -54t88 -199t-77.5 -200t-195.5 -73q-56 0 -94 27t-44 50l1 -307q2 -38 12 -64.5t19 -33.5l9 -7q-34 9 -105 9q-32 0 -58 -2t-37 -4l-10 -3q2 1 4.5 3t10 10.5t13 20t10 33.5t5.5 49l1 569q0 110 -43 123q55 0 102 18t65 45v-65q45 45 114 55zM336 22 q74 0 113 71.5t39 165.5q0 117 -45.5 183t-113.5 63q-54 -3 -91.5 -40t-37.5 -69v-223q0 -66 37.5 -108.5t98.5 -42.5z" unicode="p" horiz-adv-x="670" glyph-name="p"/>
<glyph d="M568 -227q2 -40 12 -67t19 -34l9 -7q-34 9 -105 9q-32 0 -58 -2t-37 -4l-10 -3q5 2 12 8.5t19 37.5t12 76v290q-12 -20 -53.5 -48.5t-96.5 -28.5q-117 0 -189 72.5t-72 200.5q0 127 88 199t210 54q66 -9 129 -67q34 7 63 30t46 47zM440 173v223q0 32 -37.5 69t-91.5 40 q-68 3 -113.5 -63t-45.5 -183q0 -44 7.5 -84t23 -75.5t44.5 -56.5t67 -21q62 0 104 43.5t42 107.5z" unicode="q" horiz-adv-x="668" glyph-name="q"/>
<glyph d="M431 350q-33 0 -45.5 25.5t3.5 49.5q24 42 8 65t-58 20q-64 -5 -103 -88t-39 -211v-88q0 -29 4.5 -52t10.5 -35.5t12.5 -21t11.5 -11.5l4 -3q-34 9 -105 9q-32 0 -58 -2t-37 -5l-10 -2q2 1 5 3t10 11t13 21.5t10.5 35.5t4.5 52v227q0 110 -43 123q55 0 102 18t65 45v-142 q12 46 54.5 90t95.5 47q55 4 95.5 -28.5t46.5 -75.5q5 -32 -12.5 -54.5t-45.5 -22.5z" unicode="r" horiz-adv-x="540" glyph-name="r"/>
<glyph d="M129 418q0 -36 28 -64.5t68.5 -49t80.5 -41.5t68 -54t28 -75q0 -57 -57.5 -96t-151.5 -38q-26 0 -64.5 12.5t-59.5 12.5q-12 0 -24.5 -6.5t-14.5 -17.5l24 161q38 -145 139 -145q46 0 76.5 33t26.5 76q-3 31 -30.5 54.5t-64.5 40.5t-73.5 36.5t-61.5 53.5t-25 80 q0 59 53 97t129 33q36 -2 84 -20q27 -8 43 -2t20 18l-28 -146q0 2 -3 14t-11.5 32t-20.5 38.5t-33.5 33t-47.5 15.5q-41 2 -69 -19t-28 -67zM30 1v-1v1z" unicode="s" horiz-adv-x="452" glyph-name="s"/>
<glyph d="M368 20q-29 -22 -74 -22q-94 0 -138 37.5t-44 133.5v230q0 27 -1 36t-7.5 23.5t-24.5 19t-49 4.5v30q81 0 134.5 64.5t53.5 162.5h18v-227h124v-30h-124v-313q1 -29 1.5 -35.5t2.5 -32t6.5 -34.5t12.5 -24t21.5 -20.5t31.5 -5.5q24 0 44 13z" unicode="t" horiz-adv-x="428" glyph-name="t"/>
<glyph d="M515 98q0 -36 8.5 -60.5t16.5 -31.5l9 -6q-27 7 -109 7q-25 0 -42.5 -1.5t-22.5 -3.5l-5 -2q21 24 21 69q-9 -26 -42.5 -47.5t-75.5 -21.5q-29 0 -55 4t-53.5 15.5t-47 29t-32 48t-12.5 70.5v196q0 110 -43 123q58 0 104 14t63 39v-367q0 -153 87 -153q41 0 74 32t33 76 v246q0 110 -43 123q58 0 104 14t63 39v-451z" unicode="u" horiz-adv-x="609" glyph-name="u"/>
<glyph d="M468 503q57 0 109 8q-14 -2 -32 -8t-48.5 -32t-47.5 -65l-162 -406l-193 421q-36 69 -74 90q45 -9 114 -9q58 0 112 9q-21 -9 -28.5 -28.5t2.5 -48.5l116 -260l89 233q31 82 -68 104q65 -8 111 -8zM577 511h2h-2z" unicode="v" horiz-adv-x="639" glyph-name="v"/>
<glyph d="M767 503q55 0 111 8q-14 -3 -31 -9.5t-50 -33t-49 -62.5l-162 -406l-138 304l-151 -304l-193 421q-36 69 -74 90q45 -9 114 -9q58 0 112 9q-21 -9 -28.5 -28.5t2.5 -48.5l128 -260l77 159l-42 88q-16 32 -36.5 56.5t-36.5 33.5q45 -9 113 -9q58 0 112 9 q-21 -9 -28.5 -28.5t2.5 -48.5l114 -260l91 233q30 82 -68 104q65 -8 111 -8z" unicode="w" horiz-adv-x="938" glyph-name="w"/>
<glyph d="M450 91q19 -30 44.5 -55.5t41.5 -34.5q-46 9 -124 8q-58 0 -112 -9q23 9 31.5 28.5t-6.5 48.5l-89 139l-72 -113q-21 -29 -14 -60.5t47 -41.5q-52 9 -98 9q-17 0 -40.5 -2t-40.5 -4.5t-18 -2.5q31 5 67 27.5t63 57.5q52 68 95 146l-129 190q-19 30 -43.5 55.5t-40.5 34.5 q45 -9 124 -9q48 0 102 9q-20 -8 -24.5 -33.5t8.5 -43.5l100 -151l72 126q14 26 17.5 44.5t-8 34.5t-42.5 23q6 -1 15.5 -2.5t35 -4t45.5 -2.5q21 0 45.5 2.5t40 4.5t16.5 2q-84 -13 -131 -86q-37 -58 -95 -159z" unicode="x" horiz-adv-x="599" glyph-name="x"/>
<glyph d="M470 503q43 0 107 8q-90 -15 -126 -105q-9 -22 -27.5 -75t-46.5 -132.5t-49 -138.5q-78 -214 -122 -283q-34 -53 -80 -83.5t-92 -28.5q-28 2 -51 19t-23 45q0 21 13.5 37t35.5 16t41.5 -25t39.5 -25q66 0 113 83.5t48 190.5q1 102 -83 275l-72 140q-36 69 -74 90 q45 -9 114 -9q58 0 112 9q-21 -9 -28.5 -28.5t2.5 -48.5l120 -262q66 181 79 232q10 38 -12.5 69.5t-49.5 37.5q65 -8 111 -8z" unicode="y" horiz-adv-x="637" glyph-name="y"/>
<glyph d="M469 421l-264 -403h125q43 0 79 14.5t56.5 33.5t35.5 42.5t19.5 35t6.5 18.5l-25 -161q-297 -1 -472 -1q39 21 86 92l267 401l-118 -1q-44 0 -80 -12.5t-56 -28t-35.5 -35t-19 -28t-5.5 -13.5l23 134l458 1q-30 -12 -81 -89z" unicode="z" horiz-adv-x="610" glyph-name="z"/>
<glyph d="M309 58q0 -139 90 -178q22 -9 38 -9q-143 0 -200.5 58.5t-47.5 165.5q4 35 10 127q3 41 -9.5 74.5t-32 51t-39.5 29.5t-34 15l-14 4q6 1 15 3.5t32.5 15t40.5 30t30.5 51t10.5 74.5q-7 96 -10 126q-10 107 47.5 165.5t200.5 58.5q-33 0 -67 -27q-61 -48 -61 -160 q0 -43 3.5 -90t2.5 -73q-7 -146 -168 -174q161 -28 168 -174q1 -26 -2.5 -74t-3.5 -90z" unicode="{" horiz-adv-x="437" glyph-name="braceleft"/>
<glyph d="M204 -335h-84v1218h84v-1218z" unicode="|" horiz-adv-x="324" glyph-name="bar"/>
<glyph d="M198 58q0 -139 -91 -178q-22 -9 -37 -9q143 0 200.5 58.5t47.5 165.5q-4 35 -10 127q-3 41 9.5 74.5t32 51t39.5 29.5t34 15l14 4q-6 1 -15 3.5t-32.5 15t-40.5 30t-30.5 51t-10.5 74.5q7 96 10 126q10 107 -47.5 165.5t-200.5 58.5q33 0 67 -27q61 -48 61 -160 q0 -43 -3.5 -90t-2.5 -73q7 -146 168 -174q-161 -28 -168 -174q-1 -26 2.5 -74t3.5 -90z" unicode="}" horiz-adv-x="507" glyph-name="braceright"/>
<glyph d="M672 412q24 0 45 3.5t36 8.5t28 12.5t21 15t14.5 15.5t10 15t6 12.5t3.5 7.5v2q0 -89 -48 -141.5t-118 -52.5q-66 0 -197.5 43t-188.5 43q-24 0 -45 -3.5t-36 -8.5t-28 -12.5t-21 -15t-14.5 -15.5t-10 -15t-6 -12.5t-3.5 -7.5v-2q0 93 47.5 143.5t118.5 50.5 q66 0 197 -43t189 -43z" unicode="~" horiz-adv-x="956" glyph-name="asciitilde"/>
<glyph d="M170 880q0 -29 20.5 -49t49.5 -20t49.5 20t20.5 49t-20.5 49.5t-49.5 20.5t-49.5 -20.5t-20.5 -49.5zM145 56q0 52 41.5 339t45.5 322q0 4 20.5 -136.5t41 -305t20.5 -219.5q0 -49 -26.5 -76.5t-58 -27.5t-58 27.5t-26.5 76.5z" unicode="¡" horiz-adv-x="459" glyph-name="exclamdown"/>
<glyph d="M436 189q35 0 62.5 13.5t42 31t24 38t12.5 32t3 14.5l23 -144q-2 13 -22 20.5t-44 -0.5q-59 -20 -102 -20q-41 0 -73 7l-38 -181h-52l40 195q-90 33 -141 112.5t-51 187.5q0 142 86.5 231.5t228.5 89.5h5l35 172h55l-38 -179q24 -5 45 -13q24 -8 44 -0.5t22 20.5 l-23 -144q0 2 -2 10.5t-8 24t-15.5 31t-26.5 31t-39 23.5l-123 -592q33 -11 70 -11zM218 495q0 -202 100 -271l118 576q-76 0 -126.5 -43.5t-71 -109.5t-20.5 -152z" unicode="¢" horiz-adv-x="723" glyph-name="cent"/>
<glyph d="M748 179l32 -180h-710q5 1 14 5.5t35 30t49 64.5t51 118t46 182h-119l20 80h112q9 66 15 144q9 114 81.5 186t181.5 72q54 0 109 -20.5t83 -40.5l28 -20l-20 -139q-52 198 -200 198q-78 0 -116 -58.5t-48 -166.5q-8 -89 -19 -155h229l-20 -80h-225q-19 -89 -48 -160.5 t-56.5 -109t-52.5 -62.5t-40 -33l-16 -7h463q141 8 141 152z" unicode="£" horiz-adv-x="900" glyph-name="sterling"/>
<glyph d="M516 311l82 -82l-47 -47l-83 82q-58 -44 -133 -44t-133 44l-82 -83l-49 49l82 82q-44 60 -44 134q0 73 44 133l-83 82l49 49l82 -83q60 44 134 44q75 0 134 -45l83 82l47 -46l-83 -83q44 -60 44 -133t-44 -135zM335 280q68 0 116.5 48.5t48.5 117.5q0 68 -48.5 116.5 t-116.5 48.5q-69 0 -117.5 -48.5t-48.5 -116.5q0 -69 48.5 -117.5t117.5 -48.5z" unicode="¤" horiz-adv-x="669" glyph-name="currency"/>
<glyph d="M498 432v-7l122 -1v-78l-122 -1v-225q1 -57 17.5 -88.5t34.5 -31.5h-4q-42 8 -112 8q-31 0 -103 -8q17 7 30 38t13 84v223h-130v81l130 -1v14l-204 356q-22 30 -47 51.5t-39 27.5l-14 7q54 -8 124 -8q68 0 119 8q-15 -6 -23.5 -13t-8.5 -26t20 -47l190 -338l187 354 q12 22 2 43t-38 27l218 -1q-3 0 -14 -1.5t-33.5 -8t-44.5 -16.5t-45.5 -30t-37.5 -45z" unicode="¥" horiz-adv-x="880" glyph-name="yen"/>
<glyph d="M204 389h-84v494h84v-494zM120 147h84v-482h-84v482z" unicode="¦" horiz-adv-x="324" glyph-name="brokenbar"/>
<glyph d="M616 225q6 -112 -90 -180q23 -43 26 -94q5 -95 -68.5 -162.5t-201.5 -67.5q-16 0 -37.5 3.5t-36.5 7t-38 10t-28 7.5q-79 18 -79 -35v227q20 -76 76.5 -137t142.5 -61q76 0 118 43.5t42 109.5q0 59 -39.5 111t-95.5 93t-112 83t-95.5 98.5t-39.5 122.5q0 114 93 168 q-29 50 -29 106q0 97 68 151t188 54q66 0 145 -29q32 -11 60 -0.5t31 28.5l-23 -126l-9 -72q0 4 -5 20.5t-19 43.5t-34.5 52t-57.5 43t-82 18q-67 0 -109.5 -45t-42.5 -112q0 -45 27.5 -86t68.5 -70.5t90 -65t91 -69t72 -83t33 -105.5zM170 430q0 -51 36 -97t82 -77 t107 -75.5t95 -83.5q16 31 16 73q0 44 -21 83.5t-58 72.5t-75.5 61.5t-84.5 64t-74 65.5q-23 -38 -23 -87z" unicode="§" horiz-adv-x="636" glyph-name="section"/>
<glyph d="M188 990q0 25 -17 42t-42 17t-42 -17t-17 -42t17 -42t42 -17t42 17t17 42zM350 990q0 25 -17 42t-42 17t-42 -17t-17 -42t17 -42t42 -17t42 17t17 42z" unicode="¨" horiz-adv-x="420" glyph-name="dieresis"/>
<glyph d="M636 -188q113 0 216.5 43t183.5 123t122.5 183t42.5 217t-42.5 217t-122.5 183t-183.5 123t-216.5 43t-216.5 -43t-183.5 -123t-123 -183.5t-43 -216.5t43 -216.5t123 -183.5t183.5 -123t216.5 -43zM636 874q99 0 189.5 -38t160.5 -108t107.5 -160.5t37.5 -189.5 q0 -206 -145 -351q-70 -70 -160.5 -107.5t-189.5 -37.5q-204 0 -351 145q-145 147 -145 351q0 99 37.5 189.5t107.5 160.5q146 146 351 146zM652 74q34 0 61.5 13.5t42.5 31t24.5 38t12.5 32t3 14.5l23 -144q-2 13 -22 20.5t-44 -0.5q-59 -20 -102 -20q-142 0 -229 89.5 t-87 231.5t86.5 231.5t229.5 89.5q43 0 102 -20q24 -8 44 -0.5t22 20.5l-23 -144q0 3 -3 14.5t-12.5 31.5t-24.5 38t-42.5 31t-61.5 13q-58 0 -101 -24.5t-68.5 -67.5t-37.5 -96.5t-12 -116.5q0 -138 53 -222t166 -84z" unicode="©" horiz-adv-x="1271" glyph-name="copyright"/>
<glyph d="M444 744l-265 -268l217 -257l-79 -64l-247 306zM705 744l-244 -268l221 -256l-71 -59l-259 300z" unicode="«" horiz-adv-x="775" glyph-name="guillemotleft"/>
<glyph d="M120 474h656v-308h-80v230l-576 -1v79z" unicode="¬" horiz-adv-x="896" glyph-name="logicalnot"/>
<glyph d="M304 699q76 0 130 54t54 130t-54 130t-130 54t-130 -54t-54 -130t54 -130t130 -54zM304 1038q63 0 110 -45q45 -47 45 -110t-45 -110q-47 -45 -110 -45t-110 45q-45 47 -45 110t45 110q47 45 110 45zM368 800q5 -8 11 -13t9 -6l4 -1q-10 2 -26 2q-21 0 -31 -2q13 5 3 20 l-48 73h-1v4h14q19 0 32.5 13.5t13.5 37.5q0 27 -12.5 41t-29.5 14h-20q-10 0 -10 -9v-167q0 -22 10 -27q-6 2 -24 2q-8 0 -17 -1l-9 -1q10 2 10 29v150q0 29 -12 29q1 0 3.5 -0.5t8 -1t12.5 -0.5q5 0 17 1t17 1h19q29 -1 46.5 -16t17.5 -41q0 -24 -15.5 -40.5t-40.5 -17.5z " unicode="®" horiz-adv-x="558" glyph-name="registered"/>
<glyph d="M362 959v43h-292v-43h292z" unicode="¯" horiz-adv-x="432" glyph-name="macron"/>
<glyph d="M206 720q56 0 96 48t40 115q0 64 -38 113q-39 50 -98 50q-58 0 -97 -50q-39 -48 -39 -113q0 -70 39 -116.5t97 -46.5zM206 986q32 0 54 -30t22 -73q0 -42 -22.5 -72.5t-53.5 -30.5q-30 0 -53 27q-23 31 -23 76q0 41 23 72t53 31z" unicode="°" horiz-adv-x="412" glyph-name="degree"/>
<glyph d="M468 475h268v-78l-268 -1v-269h-80v269h-268v79h268v268h80v-268zM120 -36v79h616v-78z" unicode="±" horiz-adv-x="856" glyph-name="plusminus"/>
<glyph d="M282 1085l-212 -158l284 91z" unicode="´" horiz-adv-x="424" glyph-name="acute"/>
<glyph d="M452 883h606l-43 -15q-45 -25 -45 -97l2 -943l-171 -49q5 3 12.5 9.5t20 38t12.5 76.5v862q0 102 -76 102h-15q-27 0 -47 -24t-20 -72l2 -1015l-171 -49q5 3 12.5 9.5t20 38t12.5 76.5v934q0 102 -44 102h-68q-75 -1 -129 -44t-79.5 -110.5t-25.5 -150.5 q0 -133 60.5 -218.5t173.5 -87.5v-15q-142 1 -237 91t-95 230q0 139 94.5 229t237.5 92z" unicode="¶" horiz-adv-x="1088" glyph-name="paragraph"/>
<glyph d="M210 396q0 29 -20.5 49.5t-49.5 20.5t-49.5 -20.5t-20.5 -49.5t20.5 -49.5t49.5 -20.5t49.5 20.5t20.5 49.5z" unicode="·" horiz-adv-x="280" glyph-name="periodcentered"/>
<glyph d="M110 -49q41 3 62.5 -18t21.5 -50q0 -41 -30.5 -67t-62.5 -26l-2 8q24 3 44 27t15 53q-4 26 -31.5 38t-56.5 8l49 76l45 9z" unicode="¸" horiz-adv-x="264" glyph-name="cedilla"/>
<glyph d="M332 155l264 268l-217 257l80 64l246 -306zM70 155l244 268l-221 256l72 59l258 -300z" unicode="»" horiz-adv-x="775" glyph-name="guillemotright"/>
<glyph d="M264 570q0 -29 20.5 -49.5t49.5 -20.5t49.5 20.5t20.5 49.5q0 28 -20.5 48.5t-49.5 20.5t-49.5 -20t-20.5 -49zM338 383q19 -63 11 -120t-31 -97.5t-56 -83t-63.5 -77.5t-53 -81t-25.5 -92q-4 -79 40.5 -126.5t116.5 -47.5q44 0 80 18.5t59 50t37.5 62.5t23.5 67l20 -139 q-11 -9 -31 -22.5t-77.5 -36t-111.5 -22.5q-115 0 -186 54t-71 154q0 49 22.5 96t57 83.5t75 79t75.5 81.5t60 91.5t28 107.5z" unicode="¿" horiz-adv-x="517" glyph-name="questiondown"/>
<glyph unicode="À" d="M437 1097l212 -158l-284 91zM891 -4q-35 9 -106 9q-14 0 -27.5 -0.5t-23.5 -1.5t-19 -2t-15.5 -1.5t-10.5 -1.5t-7 -2h-2q4 0 11 6t15.5 27t-3.5 61l-83 261q-10 24 -24.5 34.5t-45.5 10.5h-204q-39 0 -48 -23q-89 -264 -91 -273q-9 -40 17.5 -68.5t55.5 -34.5h-210 q7 0 21.5 4t44 30t47.5 70l66 195q66 194 132.5 388.5t66.5 195.5h165q-12 -6 -16.5 -18.5t-1 -33.5t6 -31.5t10.5 -35.5l207 -675q9 -30 27 -52.5t32 -29.5zM547 414q21 0 32 11.5t7 31.5l-126 386q-19 -54 -142 -408q-2 -11 8 -16t21 -5h200z" glyph-name="Agrave"/>
<glyph unicode="Á" d="M582 1095l72 -67l-284 -91zM891 -4q-35 9 -106 9q-14 0 -27.5 -0.5t-23.5 -1.5t-19 -2t-15.5 -1.5t-10.5 -1.5t-7 -2h-2q4 0 11 6t15.5 27t-3.5 61l-83 261q-10 24 -24.5 34.5t-45.5 10.5h-204q-39 0 -48 -23q-89 -264 -91 -273q-9 -40 17.5 -68.5t55.5 -34.5h-210 q7 0 21.5 4t44 30t47.5 70l66 195q66 194 132.5 388.5t66.5 195.5h165q-12 -6 -16.5 -18.5t-1 -33.5t6 -31.5t10.5 -35.5l207 -675q9 -30 27 -52.5t32 -29.5zM547 414q21 0 32 11.5t7 31.5l-126 386q-19 -54 -142 -408q-2 -11 8 -16t21 -5h200z" glyph-name="Aacute"/>
<glyph unicode="Â" d="M653 938l-138 87l-138 -87l138 169zM891 -4q-35 9 -106 9q-14 0 -27.5 -0.5t-23.5 -1.5t-19 -2t-15.5 -1.5t-10.5 -1.5t-7 -2h-2q4 0 11 6t15.5 27t-3.5 61l-83 261q-10 24 -24.5 34.5t-45.5 10.5h-204q-39 0 -48 -23q-89 -264 -91 -273q-9 -40 17.5 -68.5t55.5 -34.5 h-210q7 0 21.5 4t44 30t47.5 70l66 195q66 194 132.5 388.5t66.5 195.5h165q-12 -6 -16.5 -18.5t-1 -33.5t6 -31.5t10.5 -35.5l207 -675q9 -30 27 -52.5t32 -29.5zM547 414q21 0 32 11.5t7 31.5l-126 386q-19 -54 -142 -408q-2 -11 8 -16t21 -5h200z" glyph-name="Acircumflex"/>
<glyph unicode="Ã" d="M438 991q-13 0 -24.5 -2.5t-18.5 -6.5t-12.5 -9t-8.5 -9.5t-5 -8.5l-3 -6v-2q0 44 21 68.5t52 24.5q29 0 86 -20.5t82 -20.5q13 0 24 2.5t18.5 6.5t13 9t8 9.5t4.5 8.5l3 6v2q0 -43 -21 -68t-51 -25q-29 0 -86 20.5t-82 20.5zM891 -4q-35 9 -106 9q-14 0 -27.5 -0.5 t-23.5 -1.5t-19 -2t-15.5 -1.5t-10.5 -1.5t-7 -2h-2q4 0 11 6t15.5 27t-3.5 61l-83 261q-10 24 -24.5 34.5t-45.5 10.5h-204q-39 0 -48 -23q-89 -264 -91 -273q-9 -40 17.5 -68.5t55.5 -34.5h-210q7 0 21.5 4t44 30t47.5 70l66 195q66 194 132.5 388.5t66.5 195.5h165 q-12 -6 -16.5 -18.5t-1 -33.5t6 -31.5t10.5 -35.5l207 -675q9 -30 27 -52.5t32 -29.5zM547 414q21 0 32 11.5t7 31.5l-126 386q-19 -54 -142 -408q-2 -11 8 -16t21 -5h200z" glyph-name="Atilde"/>
<glyph unicode="Ä" d="M426 969q-25 0 -42 17t-17 42t17 42t42 17t42 -17t17 -42t-17 -42t-42 -17zM588 969q-25 0 -42 17t-17 42t17 42t42 17t42 -17t17 -42t-17 -42t-42 -17zM891 -4q-35 9 -106 9q-14 0 -27.5 -0.5t-23.5 -1.5t-19 -2t-15.5 -1.5t-10.5 -1.5t-7 -2h-2q4 0 11 6t15.5 27 t-3.5 61l-83 261q-10 24 -24.5 34.5t-45.5 10.5h-204q-39 0 -48 -23q-89 -264 -91 -273q-9 -40 17.5 -68.5t55.5 -34.5h-210q7 0 21.5 4t44 30t47.5 70l66 195q66 194 132.5 388.5t66.5 195.5h165q-12 -6 -16.5 -18.5t-1 -33.5t6 -31.5t10.5 -35.5l207 -675q9 -30 27 -52.5 t32 -29.5zM547 414q21 0 32 11.5t7 31.5l-126 386q-19 -54 -142 -408q-2 -11 8 -16t21 -5h200z" glyph-name="Adieresis"/>
<glyph unicode="Å" d="M466 946q-27 18 -30 55q-3 34 19 65q22 30 56 38t61 -11t30 -56q3 -34 -19 -65q-21 -28 -56 -38q-12 -2 -19 -2q-23 0 -42 14zM471 1043q-18 -18 -15 -35q1 -18 21 -29q21 -9 46 -5q28 5 44 21q18 18 15 36q-2 18 -21 28q-16 7 -31 7q-5 0 -15 -2q-26 -3 -44 -21zM891 -4 q-35 9 -106 9q-14 0 -27.5 -0.5t-23.5 -1.5t-19 -2t-15.5 -1.5t-10.5 -1.5t-7 -2h-2q4 0 11 6t15.5 27t-3.5 61l-83 261q-10 24 -24.5 34.5t-45.5 10.5h-204q-39 0 -48 -23q-89 -264 -91 -273q-9 -40 17.5 -68.5t55.5 -34.5h-210q7 0 21.5 4t44 30t47.5 70l66 195 q66 194 132.5 388.5t66.5 195.5h165q-12 -6 -16.5 -18.5t-1 -33.5t6 -31.5t10.5 -35.5l207 -675q9 -30 27 -52.5t32 -29.5zM547 414q21 0 32 11.5t7 31.5l-126 386q-19 -54 -142 -408q-2 -11 8 -16t21 -5h200z" glyph-name="Aring"/>
<glyph d="M1071 17q42 0 72.5 16t42.5 38t20 46t6 40.5t0 20.5v1l31 -179l-599 1q2 1 5 3t10.5 11t13 21.5t10.5 35.5t5 52v245q-4 28 -35 28h-209q-18 0 -28.5 -1t-22 -7t-19.5 -17q-33 -57 -73.5 -127t-63.5 -110t-25 -43q-12 -31 1 -53.5t31 -30.5l19 -7h-193q5 0 18 5t43 28 t57 60l456 790l599 1l-31 -179q0 147 -119 160q-11 1 -22 1h-185q-43 0 -58.5 -22t-15.5 -60v-326q3 -42 39 -42h103q64 0 96 34.5t36 70.5q-3 -60 -3 -109q0 -62 3 -119q-5 35 -37.5 70t-93.5 35h-105q-35 0 -38 -43v-256q0 -83 74 -83h185zM650 415q34 0 38 33v314 q0 73 -28 107l-240 -416q-16 -38 25 -38h205z" unicode="Æ" horiz-adv-x="1263" glyph-name="AE"/>
<glyph d="M514 21q45 0 81.5 18t57 43t35 52t19.5 43.5t5 20.5l31 -198q-6 20 -30 29t-61 -2q-74 -27 -139 -28l-45 -48q41 3 62.5 -18t21.5 -50q0 -41 -30.5 -67t-62.5 -26l-2 8q24 3 44 27t15 53q-4 26 -31.5 38t-56.5 8l49 76q-181 9 -294 130.5t-113 308.5q0 194 121.5 317.5 t312.5 123.5q54 0 148 -29q33 -9 59.5 -1t33.5 29l-32 -199q0 4 -4.5 20.5t-18.5 44t-34.5 52t-58 43t-83.5 18.5q-79 0 -140 -33.5t-97.5 -92.5t-54.5 -133t-18 -160q0 -90 18 -164.5t54.5 -132t97 -89.5t140.5 -32z" unicode="Ç" horiz-adv-x="765" glyph-name="Ccedilla"/>
<glyph d="M314 1099l212 -158l-284 91zM638 178l31 -179l-599 1q2 1 5 3t10.5 11t13 21.5t10.5 35.5t5 52v638q0 45 -11 75.5t-22 38.5l-11 8l599 1l-31 -179q0 147 -119 160q-11 1 -22 1h-185q-43 0 -58.5 -22t-15.5 -60v-326q3 -42 39 -42h103q64 0 96 34.5t36 70.5 q-3 -60 -3 -109q0 -62 3 -119q-5 35 -37.5 70t-93.5 35h-105q-35 0 -38 -43v-256q0 -83 74 -83h185q42 0 72.5 16t42.5 38t20 46t6 40.5t0 20.5v1z" unicode="È" horiz-adv-x="689" glyph-name="Egrave"/>
<glyph d="M468 1095l-212 -158l284 91zM638 178l31 -179l-599 1q2 1 5 3t10.5 11t13 21.5t10.5 35.5t5 52v638q0 45 -11 75.5t-22 38.5l-11 8l599 1l-31 -179q0 147 -119 160q-11 1 -22 1h-185q-43 0 -58.5 -22t-15.5 -60v-326q3 -42 39 -42h103q64 0 96 34.5t36 70.5 q-3 -60 -3 -109q0 -62 3 -119q-5 35 -37.5 70t-93.5 35h-105q-35 0 -38 -43v-256q0 -83 74 -83h185q42 0 72.5 16t42.5 38t20 46t6 40.5t0 20.5v1z" unicode="É" horiz-adv-x="689" glyph-name="Eacute"/>
<glyph d="M542 936l-138 87l-138 -87l138 169zM638 178l31 -179l-599 1q2 1 5 3t10.5 11t13 21.5t10.5 35.5t5 52v638q0 45 -11 75.5t-22 38.5l-11 8l599 1l-31 -179q0 147 -119 160q-11 1 -22 1h-185q-43 0 -58.5 -22t-15.5 -60v-326q3 -42 39 -42h103q64 0 96 34.5t36 70.5 q-3 -60 -3 -109q0 -62 3 -119q-5 35 -37.5 70t-93.5 35h-105q-35 0 -38 -43v-256q0 -83 74 -83h185q42 0 72.5 16t42.5 38t20 46t6 40.5t0 20.5v1z" unicode="Ê" horiz-adv-x="689" glyph-name="Ecircumflex"/>
<glyph d="M365 1010q0 25 -17 42t-42 17t-42 -17t-17 -42t17 -42t42 -17t42 17t17 42zM527 1010q0 25 -17 42t-42 17t-42 -17t-17 -42t17 -42t42 -17t42 17t17 42zM638 178l31 -179l-599 1q2 1 5 3t10.5 11t13 21.5t10.5 35.5t5 52v638q0 45 -11 75.5t-22 38.5l-11 8l599 1 l-31 -179q0 147 -119 160q-11 1 -22 1h-185q-43 0 -58.5 -22t-15.5 -60v-326q3 -42 39 -42h103q64 0 96 34.5t36 70.5q-3 -60 -3 -109q0 -62 3 -119q-5 35 -37.5 70t-93.5 35h-105q-35 0 -38 -43v-256q0 -83 74 -83h185q42 0 72.5 16t42.5 38t20 46t6 40.5t0 20.5v1z" unicode="Ë" horiz-adv-x="689" glyph-name="Edieresis"/>
<glyph d="M112 1097l212 -158l-284 91zM113 123q0 -29 -4.5 -52t-10.5 -35.5t-12.5 -21t-11.5 -11.5l-4 -3q34 9 105 9q32 0 58 -2t37 -5l10 -2q-2 1 -5 3t-10 11t-13 21.5t-10.5 35.5t-4.5 52v636q0 29 4.5 52t10.5 35.5t12.5 21t11.5 11.5l4 3q-34 -9 -105 -9q-32 0 -58 2.5 t-37 4.5l-10 2q2 -1 5 -3t10 -11t13 -21.5t10.5 -35.5t4.5 -52v-636z" unicode="Ì" horiz-adv-x="310" glyph-name="Igrave"/>
<glyph d="M262 1095l-212 -158l284 91zM113 123q0 -29 -4.5 -52t-10.5 -35.5t-12.5 -21t-11.5 -11.5l-4 -3q34 9 105 9q32 0 58 -2t37 -5l10 -2q-2 1 -5 3t-10 11t-13 21.5t-10.5 35.5t-4.5 52v636q0 29 4.5 52t10.5 35.5t12.5 21t11.5 11.5l4 3q-34 -9 -105 -9q-32 0 -58 2.5 t-37 4.5l-10 2q2 -1 5 -3t10 -11t13 -21.5t10.5 -35.5t4.5 -52v-636z" unicode="Í" horiz-adv-x="310" glyph-name="Iacute"/>
<glyph d="M321 946l-138 87l-138 -87l138 169zM113 123q0 -29 -4.5 -52t-10.5 -35.5t-12.5 -21t-11.5 -11.5l-4 -3q34 9 105 9q32 0 58 -2t37 -5l10 -2q-2 1 -5 3t-10 11t-13 21.5t-10.5 35.5t-4.5 52v636q0 29 4.5 52t10.5 35.5t12.5 21t11.5 11.5l4 3q-34 -9 -105 -9 q-32 0 -58 2.5t-37 4.5l-10 2q2 -1 5 -3t10 -11t13 -21.5t10.5 -35.5t4.5 -52v-636z" unicode="Î" horiz-adv-x="310" glyph-name="Icircumflex"/>
<glyph d="M158 1030q0 25 -17 42t-42 17t-42 -17t-17 -42t17 -42t42 -17t42 17t17 42zM320 1030q0 25 -17 42t-42 17t-42 -17t-17 -42t17 -42t42 -17t42 17t17 42zM113 123q0 -29 -4.5 -52t-10.5 -35.5t-12.5 -21t-11.5 -11.5l-4 -3q34 9 105 9q32 0 58 -2t37 -5l10 -2q-2 1 -5 3 t-10 11t-13 21.5t-10.5 35.5t-4.5 52v636q0 29 4.5 52t10.5 35.5t12.5 21t11.5 11.5l4 3q-34 -9 -105 -9q-32 0 -58 2.5t-37 4.5l-10 2q2 -1 5 -3t10 -11t13 -21.5t10.5 -35.5t4.5 -52v-636z" unicode="Ï" horiz-adv-x="310" glyph-name="Idieresis"/>
<glyph d="M451 881q132 10 241.5 -40.5t176 -157t66.5 -250.5q0 -200 -134 -323.5t-354 -110.5q-130 10 -156 10q-32 0 -54.5 -2t-29.5 -5l-7 -2q2 1 5 3t10.5 11t13 21.5t10.5 35.5t5 52v271l-124 -1v107h124v259q0 45 -11 75.5t-22 39.5l-11 8q20 -9 91 -9q32 0 160 8zM469 17 q155 -12 244 101.5t88 314.5q1 215 -83.5 329.5t-248.5 100.5q-53 -4 -77 -21t-24 -60v-282h133v-104l-133 -1v-296q0 -73 101 -82z" unicode="Ð" horiz-adv-x="955" glyph-name="Eth"/>
<glyph d="M517 1019q13 0 24 2.5t18.5 6.5t13 9t8 9.5t4.5 8.5l3 6v2q0 -43 -21 -68t-51 -25q-29 0 -86 20.5t-82 20.5q-13 0 -24.5 -2.5t-18.5 -6.5t-12.5 -9t-8.5 -9.5t-5 -8.5l-3 -6v-2q0 44 21 68.5t52 24.5q29 0 86 -20.5t82 -20.5zM745 66q0 -23 13 -42t31 -27h-154l-462 766 v-640q3 -67 28 -95t56 -28h-187q29 0 55.5 30.5t29.5 92.5v661q-20 60 -73 95q24 -8 112 -8q29 0 56.5 2.5t39.5 4.5l13 2q-16 -6 -16 -36.5t14 -55.5q8 -14 114.5 -193t208.5 -351l103 -171v678q-3 67 -29 98t-56 31h187q-28 0 -54.5 -33.5t-29.5 -95.5v-685z" unicode="Ñ" horiz-adv-x="849" glyph-name="Ntilde"/>
<glyph d="M421 1097l212 -158l-284 91zM489 901q185 0 302.5 -129t117.5 -322q0 -191 -119.5 -320.5t-300.5 -129.5q-180 0 -299.5 129.5t-119.5 320.5q0 193 117.5 322t301.5 129zM489 22q96 0 162 60.5t94.5 154.5t28.5 213q0 85 -16.5 159.5t-49 136t-89 97.5t-130.5 36 t-130 -36t-89 -97.5t-49 -136t-16 -159.5q0 -88 17 -164t50 -135.5t89 -94t128 -34.5z" unicode="Ò" horiz-adv-x="929" glyph-name="Ograve"/>
<glyph d="M528 1095l-212 -158l284 91zM489 901q185 0 302.5 -129t117.5 -322q0 -191 -119.5 -320.5t-300.5 -129.5q-180 0 -299.5 129.5t-119.5 320.5q0 193 117.5 322t301.5 129zM489 22q96 0 162 60.5t94.5 154.5t28.5 213q0 85 -16.5 159.5t-49 136t-89 97.5t-130.5 36 t-130 -36t-89 -97.5t-49 -136t-16 -159.5q0 -88 17 -164t50 -135.5t89 -94t128 -34.5z" unicode="Ó" horiz-adv-x="929" glyph-name="Oacute"/>
<glyph d="M622 946l-138 87l-138 -87l138 169zM489 901q185 0 302.5 -129t117.5 -322q0 -191 -119.5 -320.5t-300.5 -129.5q-180 0 -299.5 129.5t-119.5 320.5q0 193 117.5 322t301.5 129zM489 22q96 0 162 60.5t94.5 154.5t28.5 213q0 85 -16.5 159.5t-49 136t-89 97.5t-130.5 36 t-130 -36t-89 -97.5t-49 -136t-16 -159.5q0 -88 17 -164t50 -135.5t89 -94t128 -34.5z" unicode="Ô" horiz-adv-x="929" glyph-name="Ocircumflex"/>
<glyph d="M570 1019q13 0 24 2.5t18.5 6.5t13 9t8 9.5t4.5 8.5t2 6l1 2q0 -43 -21 -68t-51 -25q-29 0 -86 20.5t-82 20.5q-13 0 -24.5 -2.5t-18.5 -6.5t-12.5 -9t-8.5 -9.5t-5 -8.5t-2 -6l-1 -2q0 44 21 68.5t52 24.5q29 0 85.5 -20.5t82.5 -20.5zM489 901q185 0 302.5 -129 t117.5 -322q0 -191 -119.5 -320.5t-300.5 -129.5q-180 0 -299.5 129.5t-119.5 320.5q0 193 117.5 322t301.5 129zM489 22q96 0 162 60.5t94.5 154.5t28.5 213q0 85 -16.5 159.5t-49 136t-89 97.5t-130.5 36t-130 -36t-89 -97.5t-49 -136t-16 -159.5q0 -88 17 -164t50 -135.5 t89 -94t128 -34.5z" unicode="Õ" horiz-adv-x="929" glyph-name="Otilde"/>
<glyph d="M456 1030q0 25 -17 42t-42 17t-42 -17t-17 -42t17 -42t42 -17t42 17t17 42zM618 1030q0 25 -17 42t-42 17t-42 -17t-17 -42t17 -42t42 -17t42 17t17 42zM489 901q185 0 302.5 -129t117.5 -322q0 -191 -119.5 -320.5t-300.5 -129.5q-180 0 -299.5 129.5t-119.5 320.5 q0 193 117.5 322t301.5 129zM489 22q96 0 162 60.5t94.5 154.5t28.5 213q0 85 -16.5 159.5t-49 136t-89 97.5t-130.5 36t-130 -36t-89 -97.5t-49 -136t-16 -159.5q0 -88 17 -164t50 -135.5t89 -94t128 -34.5z" unicode="Ö" horiz-adv-x="929" glyph-name="Odieresis"/>
<glyph d="M741 650l-254 -254l252 -253l-55 -55l-253 252l-252 -253l-57 57l253 252l-255 254l57 57l254 -255l255 254z" unicode="×" horiz-adv-x="861" glyph-name="multiply"/>
<glyph d="M489 901q185 0 302.5 -129t117.5 -322q0 -191 -119.5 -320.5t-300.5 -129.5q-180 0 -299.5 129.5t-119.5 320.5q0 193 117.5 322t301.5 129zM489 879q-74 0 -130 -36t-89 -97.5t-49 -136t-16 -159.5q0 -205 81 -321q96 199 344 706q-60 44 -141 44zM489 22q96 0 162 60.5 t94.5 154.5t28.5 213q0 203 -82 321l-342 -707q59 -42 139 -42z" unicode="Ø" horiz-adv-x="929" glyph-name="Oslash"/>
<glyph d="M349 1097l212 -158l-284 91zM797 883q-2 -1 -5 -3t-10 -11t-13 -21.5t-10.5 -35.5t-4.5 -52v-500q0 -74 -26.5 -129.5t-73 -87t-101.5 -47.5t-119 -16t-119 16t-101.5 47.5t-73.5 87t-27 129.5v500q0 29 -4.5 52t-10.5 35.5t-12.5 21t-11.5 11.5l-4 3q34 -9 105 -9 q32 0 58.5 2t36.5 4l11 3q-2 -1 -5 -3t-10 -11t-13 -21.5t-10.5 -35.5t-4.5 -52v-563q0 -35 10.5 -68.5t32 -62.5t61 -47t91.5 -18h1q100 0 148 59t48 137v563q0 45 -11 76t-22 39l-11 8q34 -9 105 -9q32 0 58.5 2t36.5 4z" unicode="Ù" horiz-adv-x="817" glyph-name="Ugrave"/>
<glyph d="M526 1095l-212 -158l284 91zM797 883q-2 -1 -5 -3t-10 -11t-13 -21.5t-10.5 -35.5t-4.5 -52v-500q0 -74 -26.5 -129.5t-73 -87t-101.5 -47.5t-119 -16t-119 16t-101.5 47.5t-73.5 87t-27 129.5v500q0 29 -4.5 52t-10.5 35.5t-12.5 21t-11.5 11.5l-4 3q34 -9 105 -9 q32 0 58.5 2t36.5 4l11 3q-2 -1 -5 -3t-10 -11t-13 -21.5t-10.5 -35.5t-4.5 -52v-563q0 -35 10.5 -68.5t32 -62.5t61 -47t91.5 -18h1q100 0 148 59t48 137v563q0 45 -11 76t-22 39l-11 8q34 -9 105 -9q32 0 58.5 2t36.5 4z" unicode="Ú" horiz-adv-x="817" glyph-name="Uacute"/>
<glyph d="M572 946l-138 87l-138 -87l138 169zM797 883q-2 -1 -5 -3t-10 -11t-13 -21.5t-10.5 -35.5t-4.5 -52v-500q0 -74 -26.5 -129.5t-73 -87t-101.5 -47.5t-119 -16t-119 16t-101.5 47.5t-73.5 87t-27 129.5v500q0 29 -4.5 52t-10.5 35.5t-12.5 21t-11.5 11.5l-4 3 q34 -9 105 -9q32 0 58.5 2t36.5 4l11 3q-2 -1 -5 -3t-10 -11t-13 -21.5t-10.5 -35.5t-4.5 -52v-563q0 -35 10.5 -68.5t32 -62.5t61 -47t91.5 -18h1q100 0 148 59t48 137v563q0 45 -11 76t-22 39l-11 8q34 -9 105 -9q32 0 58.5 2t36.5 4z" unicode="Û" horiz-adv-x="817" glyph-name="Ucircumflex"/>
<glyph d="M420 1030q0 25 -17 42t-42 17t-42 -17t-17 -42t17 -42t42 -17t42 17t17 42zM582 1030q0 25 -17 42t-42 17t-42 -17t-17 -42t17 -42t42 -17t42 17t17 42zM797 883q-2 -1 -5 -3t-10 -11t-13 -21.5t-10.5 -35.5t-4.5 -52v-500q0 -74 -26.5 -129.5t-73 -87t-101.5 -47.5 t-119 -16t-119 16t-101.5 47.5t-73.5 87t-27 129.5v500q0 29 -4.5 52t-10.5 35.5t-12.5 21t-11.5 11.5l-4 3q34 -9 105 -9q32 0 58.5 2t36.5 4l11 3q-2 -1 -5 -3t-10 -11t-13 -21.5t-10.5 -35.5t-4.5 -52v-563q0 -35 10.5 -68.5t32 -62.5t61 -47t91.5 -18h1q100 0 148 59 t48 137v563q0 45 -11 76t-22 39l-11 8q34 -9 105 -9q32 0 58.5 2t36.5 4z" unicode="Ü" horiz-adv-x="817" glyph-name="Udieresis"/>
<glyph d="M548 1095l72 -67l-284 -91zM660 889h218q-2 0 -14.5 -4t-34 -13.5t-44 -22.5t-45.5 -35.5t-36 -48.5l-190 -369v-275q3 -112 52 -118q-4 0 -35.5 3.5t-70.5 3.5q-33 0 -114 -9q18 7 31 38t13 84v280l-234 393q-44 73 -85 87q54 -9 109 -9q59 0 116 9q-10 -3 -19 -12 t-8.5 -29.5t18.5 -45.5l218 -376l193 376q11 22 0 54.5t-38 38.5zM71 883h-1h1z" unicode="Ý" horiz-adv-x="898" glyph-name="Yacute"/>
<glyph d="M657 444v-3v-3q0 -110 -82 -175q-75 -69 -182 -69h-118q-35 0 -38 -40v-31q0 -29 4.5 -52t10.5 -35.5t12.5 -21t11.5 -11.5l4 -3q-34 9 -105 9q-32 0 -58 -2t-37 -5l-10 -2q2 1 5 3t10 11t13 21.5t10.5 35.5t4.5 52v636q0 29 -4.5 52t-10.5 35.5t-12.5 21t-11.5 11.5 l-4 3q34 -9 105 -9q32 0 58 2.5t37 4.5l10 2q-2 -1 -5 -3t-10 -11t-13 -21.5t-10.5 -35.5t-4.5 -52v-31q0 -40 38 -40h118q107 0 182 -69q82 -65 82 -175zM345 214q86 0 141 66t57 161q-2 95 -57 161t-141 66q-48 0 -60 -2q-44 -6 -48 -70v-310q0 -64 48 -70q12 -2 60 -2z " unicode="Þ" horiz-adv-x="677" glyph-name="Thorn"/>
<glyph d="M491 486q90 -18 149.5 -84t59.5 -154q0 -117 -102.5 -182.5t-255.5 -65.5q-15 0 -24 1q21 2 34 5q93 17 155.5 87.5t63.5 160.5q0 70 -36 121t-86.5 74t-105.5 23h-25v18h24q82 0 136 50t53 139q1 81 -51 137t-134 56q-48 0 -60 -2t-20.5 -6.5t-13.5 -13.5t-8.5 -15.5 t-4.5 -21t-1.5 -20.5t0 -23.5t0.5 -21.5l-1 -630q0 -51 -18 -77t-62 -26q-69 0 -87 -9q43 29 43 123v636q0 36 13.5 62t36.5 39t45 19t46 7h95q136 0 215.5 -52.5t78.5 -155.5q0 -71 -43 -126t-109 -72z" unicode="ß" horiz-adv-x="700" glyph-name="germandbls"/>
<glyph d="M196 731l212 -158l-284 91zM460 98q0 -36 8.5 -60.5t17.5 -31.5l8 -6q-17 7 -99 7q-25 0 -45 -1.5t-28 -3.5l-7 -2q21 16 21 61q-7 -21 -52.5 -41t-102.5 -20q-61 0 -106 36t-45 96q0 30 13.5 54t31 38.5t47 27.5t47.5 18t48 12t34 8q85 22 85 51v22q0 139 -111 139 q-50 0 -85 -22.5t-34 -65.5q0 -12 7.5 -17.5t15.5 -5t18 2.5t12 2q40 0 40 -40q0 -20 -15.5 -35.5t-46.5 -15.5q-19 0 -39 14.5t-28 38.5q-20 65 29.5 113.5t137.5 49.5q106 1 164.5 -49.5t58.5 -155.5v-218zM336 119v189q0 -11 -75 -36q-55 -18 -82 -47.5t-27 -89.5 q0 -61 46 -89t92 -7t46 80z" unicode="à" horiz-adv-x="554" glyph-name="agrave"/>
<glyph d="M312 725l-212 -158l284 91zM460 98q0 -36 8.5 -60.5t17.5 -31.5l8 -6q-17 7 -99 7q-25 0 -45 -1.5t-28 -3.5l-7 -2q21 16 21 61q-7 -21 -52.5 -41t-102.5 -20q-61 0 -106 36t-45 96q0 30 13.5 54t31 38.5t47 27.5t47.5 18t48 12t34 8q85 22 85 51v22q0 139 -111 139 q-50 0 -85 -22.5t-34 -65.5q0 -12 7.5 -17.5t15.5 -5t18 2.5t12 2q40 0 40 -40q0 -20 -15.5 -35.5t-46.5 -15.5q-19 0 -39 14.5t-28 38.5q-20 65 29.5 113.5t137.5 49.5q106 1 164.5 -49.5t58.5 -155.5v-218zM336 119v189q0 -11 -75 -36q-55 -18 -82 -47.5t-27 -89.5 q0 -61 46 -89t92 -7t46 80z" unicode="á" horiz-adv-x="554" glyph-name="aacute"/>
<glyph d="M392 559l-138 87l-138 -87l138 169zM460 98q0 -36 8.5 -60.5t17.5 -31.5l8 -6q-17 7 -99 7q-25 0 -45 -1.5t-28 -3.5l-7 -2q21 16 21 61q-7 -21 -52.5 -41t-102.5 -20q-61 0 -106 36t-45 96q0 30 13.5 54t31 38.5t47 27.5t47.5 18t48 12t34 8q85 22 85 51v22 q0 139 -111 139q-50 0 -85 -22.5t-34 -65.5q0 -12 7.5 -17.5t15.5 -5t18 2.5t12 2q40 0 40 -40q0 -20 -15.5 -35.5t-46.5 -15.5q-19 0 -39 14.5t-28 38.5q-20 65 29.5 113.5t137.5 49.5q106 1 164.5 -49.5t58.5 -155.5v-218zM336 119v189q0 -11 -75 -36q-55 -18 -82 -47.5 t-27 -89.5q0 -61 46 -89t92 -7t46 80z" unicode="â" horiz-adv-x="554" glyph-name="acircumflex"/>
<glyph d="M351 664q13 0 24 2.5t18.5 6.5t13 9t8 9.5t4.5 8.5l3 6v2q0 -43 -21 -68t-51 -25q-29 0 -86 20.5t-82 20.5q-13 0 -24.5 -2.5t-18.5 -6.5t-12.5 -9t-8.5 -9.5t-5 -8.5l-3 -6v-2q0 44 21 68.5t52 24.5q29 0 86 -20.5t82 -20.5zM460 98q0 -36 8.5 -60.5t17.5 -31.5l8 -6 q-17 7 -99 7q-25 0 -45 -1.5t-28 -3.5l-7 -2q21 16 21 61q-7 -21 -52.5 -41t-102.5 -20q-61 0 -106 36t-45 96q0 30 13.5 54t31 38.5t47 27.5t47.5 18t48 12t34 8q85 22 85 51v22q0 139 -111 139q-50 0 -85 -22.5t-34 -65.5q0 -12 7.5 -17.5t15.5 -5t18 2.5t12 2 q40 0 40 -40q0 -20 -15.5 -35.5t-46.5 -15.5q-19 0 -39 14.5t-28 38.5q-20 65 29.5 113.5t137.5 49.5q106 1 164.5 -49.5t58.5 -155.5v-218zM336 119v189q0 -11 -75 -36q-55 -18 -82 -47.5t-27 -89.5q0 -61 46 -89t92 -7t46 80z" unicode="ã" horiz-adv-x="554" glyph-name="atilde"/>
<glyph d="M235 663q0 25 -17 42t-42 17t-42 -17t-17 -42t17 -42t42 -17t42 17t17 42zM397 663q0 25 -17 42t-42 17t-42 -17t-17 -42t17 -42t42 -17t42 17t17 42zM460 98q0 -36 8.5 -60.5t17.5 -31.5l8 -6q-17 7 -99 7q-25 0 -45 -1.5t-28 -3.5l-7 -2q21 16 21 61q-7 -21 -52.5 -41 t-102.5 -20q-61 0 -106 36t-45 96q0 30 13.5 54t31 38.5t47 27.5t47.5 18t48 12t34 8q85 22 85 51v22q0 139 -111 139q-50 0 -85 -22.5t-34 -65.5q0 -12 7.5 -17.5t15.5 -5t18 2.5t12 2q40 0 40 -40q0 -20 -15.5 -35.5t-46.5 -15.5q-19 0 -39 14.5t-28 38.5 q-20 65 29.5 113.5t137.5 49.5q106 1 164.5 -49.5t58.5 -155.5v-218zM336 119v189q0 -11 -75 -36q-55 -18 -82 -47.5t-27 -89.5q0 -61 46 -89t92 -7t46 80z" unicode="ä" horiz-adv-x="554" glyph-name="adieresis"/>
<glyph d="M243 586q7 0 19 2q35 10 56 38q22 31 19 65q-3 37 -30 56t-61 11t-56 -38q-22 -31 -19 -65q3 -37 30 -55q19 -14 42 -14zM265 720q15 0 31 -7q19 -10 21 -28q3 -18 -15 -36q-16 -16 -44 -21q-25 -4 -46 5q-20 11 -21 29q-3 17 15 35t44 21q10 2 15 2zM460 98 q0 -36 8.5 -60.5t17.5 -31.5l8 -6q-17 7 -99 7q-25 0 -45 -1.5t-28 -3.5l-7 -2q21 16 21 61q-7 -21 -52.5 -41t-102.5 -20q-61 0 -106 36t-45 96q0 30 13.5 54t31 38.5t47 27.5t47.5 18t48 12t34 8q85 22 85 51v22q0 139 -111 139q-50 0 -85 -22.5t-34 -65.5 q0 -12 7.5 -17.5t15.5 -5t18 2.5t12 2q40 0 40 -40q0 -20 -15.5 -35.5t-46.5 -15.5q-19 0 -39 14.5t-28 38.5q-20 65 29.5 113.5t137.5 49.5q106 1 164.5 -49.5t58.5 -155.5v-218zM336 119v189q0 -11 -75 -36q-55 -18 -82 -47.5t-27 -89.5q0 -61 46 -89t92 -7t46 80z" unicode="å" horiz-adv-x="554" glyph-name="aring"/>
<glyph d="M788 151l15 -9q-19 -55 -68.5 -98.5t-132.5 -43.5q-73 0 -129 26q4 -9 9.5 -15.5t8.5 -8.5l3 -2q-17 7 -99 7q-25 0 -45 -1.5t-28 -3.5l-7 -2q21 16 21 61q-7 -21 -52.5 -41t-102.5 -20q-61 0 -106 36t-45 96q0 30 13.5 54t31 38.5t47 27.5t47.5 18t48 12t34 8 q85 22 85 51v22q0 139 -111 139q-50 0 -85 -22.5t-34 -65.5q0 -12 7.5 -17.5t15.5 -5t18 2.5t12 2q40 0 40 -40q0 -20 -15.5 -35.5t-46.5 -15.5q-19 0 -39 14.5t-28 38.5q-20 65 29.5 113.5t137.5 49.5q124 2 181 -66q72 66 173 66q92 0 150 -58.5t58 -175.5h-338 q-3 -48 3 -92.5t21.5 -85t47 -64.5t75.5 -24q73 0 117.5 37t62.5 93zM591 505q-55 0 -90.5 -56.5t-38.5 -138.5h249q0 94 -31 144.5t-89 50.5zM336 119v189q0 -11 -75 -36q-55 -18 -82 -47.5t-27 -89.5q0 -61 46 -89t92 -7t46 80z" unicode="æ" horiz-adv-x="863" glyph-name="ae"/>
<glyph d="M496 117q-4 -13 -11.5 -25.5t-24.5 -36t-48.5 -40t-71.5 -21.5l-40 -43q41 3 62.5 -18t21.5 -50q0 -41 -30.5 -67t-62.5 -26l-2 8q24 3 44 27t15 53q-4 26 -31.5 38t-56.5 8l44 68q-122 2 -198 74t-76 187q0 133 92 210.5t215 66.5q70 -6 110 -54t21 -109 q-8 -24 -28.5 -38t-39.5 -14q-31 0 -46.5 15.5t-15.5 35.5q0 40 40 40q2 0 12.5 -2t19 -2.5t17.5 5t11 17.5q5 34 -25.5 60t-75.5 28q-81 2 -133 -65t-52 -194q0 -102 46 -170t119 -68q67 0 108 34.5t57 85.5z" unicode="ç" horiz-adv-x="556" glyph-name="ccedilla"/>
<glyph d="M196 731l212 -158l-284 91zM481 151l15 -9q-19 -55 -68.5 -98.5t-132.5 -43.5q-113 0 -189 64t-76 191q0 126 77 196t177 70q92 0 150 -58.5t58 -175.5h-338q-3 -48 3 -92.5t21.5 -85t47 -64.5t75.5 -24q73 0 117.5 37t62.5 93zM284 505q-55 0 -90.5 -56.5t-38.5 -138.5 h249q0 94 -31 144.5t-89 50.5z" unicode="è" horiz-adv-x="556" glyph-name="egrave"/>
<glyph d="M358 725l-212 -158l284 91zM481 151l15 -9q-19 -55 -68.5 -98.5t-132.5 -43.5q-113 0 -189 64t-76 191q0 126 77 196t177 70q92 0 150 -58.5t58 -175.5h-338q-3 -48 3 -92.5t21.5 -85t47 -64.5t75.5 -24q73 0 117.5 37t62.5 93zM284 505q-55 0 -90.5 -56.5t-38.5 -138.5 h249q0 94 -31 144.5t-89 50.5z" unicode="é" horiz-adv-x="556" glyph-name="eacute"/>
<glyph d="M428 559l-138 87l-138 -87l138 169zM481 151l15 -9q-19 -55 -68.5 -98.5t-132.5 -43.5q-113 0 -189 64t-76 191q0 126 77 196t177 70q92 0 150 -58.5t58 -175.5h-338q-3 -48 3 -92.5t21.5 -85t47 -64.5t75.5 -24q73 0 117.5 37t62.5 93zM284 505q-55 0 -90.5 -56.5 t-38.5 -138.5h249q0 94 -31 144.5t-89 50.5z" unicode="ê" horiz-adv-x="556" glyph-name="ecircumflex"/>
<glyph d="M255 663q0 25 -17 42t-42 17t-42 -17t-17 -42t17 -42t42 -17t42 17t17 42zM417 663q0 25 -17 42t-42 17t-42 -17t-17 -42t17 -42t42 -17t42 17t17 42zM481 151l15 -9q-19 -55 -68.5 -98.5t-132.5 -43.5q-113 0 -189 64t-76 191q0 126 77 196t177 70q92 0 150 -58.5 t58 -175.5h-338q-3 -48 3 -92.5t21.5 -85t47 -64.5t75.5 -24q73 0 117.5 37t62.5 93zM284 505q-55 0 -90.5 -56.5t-38.5 -138.5h249q0 94 -31 144.5t-89 50.5z" unicode="ë" horiz-adv-x="556" glyph-name="edieresis"/>
<glyph d="M102 721l132 -138l-204 71zM81 123q0 -29 -4.5 -52t-10.5 -35.5t-12.5 -21t-11.5 -11.5l-4 -3q34 9 105 9q32 0 58 -2t37 -5l10 -2q-2 1 -5 3t-10 11t-13 21.5t-10.5 35.5t-4.5 52v413q-17 -25 -63 -39t-104 -14q43 -13 43 -123v-237z" unicode="ì" horiz-adv-x="308" glyph-name="igrave"/>
<glyph d="M162 721l72 -67l-204 -71zM81 123q0 -29 -4.5 -52t-10.5 -35.5t-12.5 -21t-11.5 -11.5l-4 -3q34 9 105 9q32 0 58 -2t37 -5l10 -2q-2 1 -5 3t-10 11t-13 21.5t-10.5 35.5t-4.5 52v413q-17 -25 -63 -39t-104 -14q43 -13 43 -123v-237z" unicode="í" horiz-adv-x="308" glyph-name="iacute"/>
<glyph d="M326 559l-138 87l-138 -87l138 169zM119 123q0 -29 -4.5 -52t-10.5 -35.5t-12.5 -21t-11.5 -11.5l-4 -3q34 9 105 9q32 0 58 -2t37 -5l10 -2q-2 1 -5 3t-10 11t-13 21.5t-10.5 35.5t-4.5 52v413q-17 -25 -63 -39t-104 -14q43 -13 43 -123v-237z" unicode="î" horiz-adv-x="366" glyph-name="icircumflex"/>
<glyph d="M148 663q0 25 -17 42t-42 17t-42 -17t-17 -42t17 -42t42 -17t42 17t17 42zM290 663q0 25 -17 42t-42 17t-42 -17t-17 -42t17 -42t42 -17t42 17t17 42zM105 123q0 -29 -4.5 -52t-10.5 -35.5t-12.5 -21t-11.5 -11.5l-4 -3q34 9 105 9q32 0 58 -2t37 -5l10 -2q-2 1 -5 3 t-10 11t-13 21.5t-10.5 35.5t-4.5 52v413q-17 -25 -63 -39t-104 -14q43 -13 43 -123v-237z" unicode="ï" horiz-adv-x="350" glyph-name="idieresis"/>
<glyph d="M893 837l-274 -35q95 -166 89 -380q0 -192 -101 -307t-257 -115q-120 0 -200 82.5t-80 205.5q0 66 26 119t67 83.5t86.5 46t90.5 15.5q101 0 167 -60.5t83 -141.5q15 266 -62 441l-273 -35l22 83l227 -1q-83 143 -214 156q-119 9 -214 -92q0 14 26 41.5t78.5 53 t109.5 25.5q91 0 170 -49t137 -135zM348 22q88 -3 135 66.5t47 193.5q0 115 -52.5 182t-133.5 62q-63 -3 -107.5 -67t-44.5 -177q0 -106 42.5 -181.5t113.5 -78.5z" unicode="ð" horiz-adv-x="933" glyph-name="eth"/>
<glyph d="M361 664q13 0 24 2.5t18.5 6.5t13 9t8 9.5t4.5 8.5l3 6v2q0 -43 -21 -68t-51 -25q-29 0 -86 20.5t-82 20.5q-13 0 -24.5 -2.5t-18.5 -6.5t-12.5 -9t-8.5 -9.5t-5 -8.5l-3 -6v-2q0 44 21 68.5t52 24.5q29 0 86 -20.5t82 -20.5zM538 123q0 -45 11 -76t21 -39l11 -8 q-34 9 -105 9q-32 0 -58 -2t-36 -5l-11 -2q2 1 5 3t10 11t13 21.5t10.5 35.5t4.5 52v217q0 75 -18 108q-25 46 -82 46q-51 0 -84 -48.5t-33 -106.5v-216q0 -29 4.5 -52t10.5 -35.5t12.5 -21t11.5 -11.5l4 -3q-34 9 -105 9q-32 0 -58 -2t-37 -5l-10 -2q2 1 5 3t10 11t13 21.5 t10.5 35.5t4.5 52v237q0 110 -43 123q58 0 104 14t63 39v-105q10 30 43 56.5t73 34.5q96 19 160.5 -29t64.5 -139v-231z" unicode="ñ" horiz-adv-x="651" glyph-name="ntilde"/>
<glyph d="M216 731l212 -158l-284 91zM285 526q103 0 180 -73t77 -194t-77 -192.5t-180 -71.5t-179 71.5t-76 192.5t76.5 194t178.5 73zM285 14q57 0 97.5 66t40.5 179q0 121 -40 184t-98 63q-59 0 -99 -63t-40 -184q0 -114 40.5 -179.5t98.5 -65.5z" unicode="ò" horiz-adv-x="602" glyph-name="ograve"/>
<glyph d="M364 725l-212 -158l284 91zM285 526q103 0 180 -73t77 -194t-77 -192.5t-180 -71.5t-179 71.5t-76 192.5t76.5 194t178.5 73zM285 14q57 0 97.5 66t40.5 179q0 121 -40 184t-98 63q-59 0 -99 -63t-40 -184q0 -114 40.5 -179.5t98.5 -65.5z" unicode="ó" horiz-adv-x="602" glyph-name="oacute"/>
<glyph d="M431 559l-138 87l-138 -87l138 169zM285 526q103 0 180 -73t77 -194t-77 -192.5t-180 -71.5t-179 71.5t-76 192.5t76.5 194t178.5 73zM285 14q57 0 97.5 66t40.5 179q0 121 -40 184t-98 63q-59 0 -99 -63t-40 -184q0 -114 40.5 -179.5t98.5 -65.5z" unicode="ô" horiz-adv-x="602" glyph-name="ocircumflex"/>
<glyph d="M375 664q13 0 24 2.5t18.5 6.5t13 9t8 9.5t4.5 8.5l3 6v2q0 -43 -21 -68t-51 -25q-29 0 -86 20.5t-82 20.5q-13 0 -24.5 -2.5t-18.5 -6.5t-12.5 -9t-8.5 -9.5t-5 -8.5l-3 -6v-2q0 44 21 68.5t52 24.5q29 0 86 -20.5t82 -20.5zM285 526q103 0 180 -73t77 -194t-77 -192.5 t-180 -71.5t-179 71.5t-76 192.5t76.5 194t178.5 73zM285 14q57 0 97.5 66t40.5 179q0 121 -40 184t-98 63q-59 0 -99 -63t-40 -184q0 -114 40.5 -179.5t98.5 -65.5z" unicode="õ" horiz-adv-x="602" glyph-name="otilde"/>
<glyph d="M265 663q0 25 -17 42t-42 17t-42 -17t-17 -42t17 -42t42 -17t42 17t17 42zM427 663q0 25 -17 42t-42 17t-42 -17t-17 -42t17 -42t42 -17t42 17t17 42zM285 526q103 0 180 -73t77 -194t-77 -192.5t-180 -71.5t-179 71.5t-76 192.5t76.5 194t178.5 73zM285 14q57 0 97.5 66 t40.5 179q0 121 -40 184t-98 63q-59 0 -99 -63t-40 -184q0 -114 40.5 -179.5t98.5 -65.5z" unicode="ö" horiz-adv-x="602" glyph-name="odieresis"/>
<glyph d="M498 650q0 29 -20.5 49.5t-49.5 20.5t-49 -20.5t-20 -49.5t20.5 -49.5t48.5 -20.5q29 0 49.5 20.5t20.5 49.5zM120 474h616v-78l-616 -1v79zM498 220q0 29 -20.5 49.5t-49.5 20.5t-49 -20.5t-20 -49.5q0 -28 20.5 -48.5t48.5 -20.5q29 0 49.5 20t20.5 49z" unicode="÷" horiz-adv-x="856" glyph-name="divide"/>
<glyph d="M285 526q103 0 180 -73t77 -194t-77 -192.5t-180 -71.5t-179 71.5t-76 192.5t76.5 194t178.5 73zM285 506q-59 0 -99 -63t-40 -184q0 -84 23 -142q34 71 100.5 207t78.5 160q-29 22 -63 22zM285 14q57 0 97.5 66t40.5 179q0 83 -21 144q-25 -52 -87 -179.5t-91 -187.5 q28 -22 61 -22z" unicode="ø" horiz-adv-x="602" glyph-name="oslash"/>
<glyph d="M236 731l212 -158l-284 91zM515 98q0 -36 8.5 -60.5t16.5 -31.5l9 -6q-27 7 -109 7q-25 0 -42.5 -1.5t-22.5 -3.5l-5 -2q21 24 21 69q-9 -26 -42.5 -47.5t-75.5 -21.5q-29 0 -55 4t-53.5 15.5t-47 29t-32 48t-12.5 70.5v196q0 110 -43 123q58 0 104 14t63 39v-367 q0 -153 87 -153q41 0 74 32t33 76v246q0 110 -43 123q58 0 104 14t63 39v-451z" unicode="ù" horiz-adv-x="629" glyph-name="ugrave"/>
<glyph d="M384 725l-212 -158l284 91zM515 98q0 -36 8.5 -60.5t16.5 -31.5l9 -6q-27 7 -109 7q-25 0 -42.5 -1.5t-22.5 -3.5l-5 -2q21 24 21 69q-9 -26 -42.5 -47.5t-75.5 -21.5q-29 0 -55 4t-53.5 15.5t-47 29t-32 48t-12.5 70.5v196q0 110 -43 123q58 0 104 14t63 39v-367 q0 -153 87 -153q41 0 74 32t33 76v246q0 110 -43 123q58 0 104 14t63 39v-451z" unicode="ú" horiz-adv-x="629" glyph-name="uacute"/>
<glyph d="M451 559l-138 87l-138 -87l138 169zM515 98q0 -36 8.5 -60.5t16.5 -31.5l9 -6q-27 7 -109 7q-25 0 -42.5 -1.5t-22.5 -3.5l-5 -2q21 24 21 69q-9 -26 -42.5 -47.5t-75.5 -21.5q-29 0 -55 4t-53.5 15.5t-47 29t-32 48t-12.5 70.5v196q0 110 -43 123q58 0 104 14t63 39 v-367q0 -153 87 -153q41 0 74 32t33 76v246q0 110 -43 123q58 0 104 14t63 39v-451z" unicode="û" horiz-adv-x="629" glyph-name="ucircumflex"/>
<glyph d="M291 663q0 25 -17 42t-42 17t-42 -17t-17 -42t17 -42t42 -17t42 17t17 42zM453 663q0 25 -17 42t-42 17t-42 -17t-17 -42t17 -42t42 -17t42 17t17 42zM515 98q0 -36 8.5 -60.5t16.5 -31.5l9 -6q-27 7 -109 7q-25 0 -42.5 -1.5t-22.5 -3.5l-5 -2q21 24 21 69 q-9 -26 -42.5 -47.5t-75.5 -21.5q-29 0 -55 4t-53.5 15.5t-47 29t-32 48t-12.5 70.5v196q0 110 -43 123q58 0 104 14t63 39v-367q0 -153 87 -153q41 0 74 32t33 76v246q0 110 -43 123q58 0 104 14t63 39v-451z" unicode="ü" horiz-adv-x="629" glyph-name="udieresis"/>
<glyph d="M393 725l-212 -158l284 91zM470 503q43 0 107 8q-90 -15 -126 -105q-9 -22 -27.5 -75t-46.5 -132.5t-49 -138.5q-78 -214 -122 -283q-34 -53 -80 -83.5t-92 -28.5q-28 2 -51 19t-23 45q0 21 13.5 37t35.5 16t41.5 -25t39.5 -25q66 0 113 83.5t48 190.5q1 102 -83 275 l-72 140q-36 69 -74 90q45 -9 114 -9q58 0 112 9q-21 -9 -28.5 -28.5t2.5 -48.5l120 -262q66 181 79 232q10 38 -12.5 69.5t-49.5 37.5q65 -8 111 -8z" unicode="ý" horiz-adv-x="637" glyph-name="yacute"/>
<glyph d="M313 508q122 18 210 -54t88 -199t-77.5 -200t-195.5 -73q-56 0 -94 27t-44 50v-307q2 -38 12 -64.5t20 -33.5l9 -7q-35 9 -106 9q-32 0 -58 -2t-37 -4l-10 -3q2 1 5 3t10.5 10.5t13 20t10.5 33.5t6 49v997q0 110 -43 123q51 0 99 23.5t68 49.5v-503q45 45 114 55zM337 4 q74 0 113 71.5t39 165.5q0 117 -45.5 183t-113.5 63q-54 -3 -91.5 -40t-37.5 -69v-223q0 -66 37.5 -108.5t98.5 -42.5z" unicode="þ" horiz-adv-x="671" glyph-name="thorn"/>
</font>
</defs>
</svg>
